<svg width="38" height="38" viewBox="0 0 38 38" fill="none" xmlns="http://www.w3.org/2000/svg">
    <g clip-path="url(#clip0)">
        <path d="M16.8425 29.6838C15.3611 31.0527 13.3121 31.3593 11.4948 30.4843C10.8378 30.1679 10.2834 29.731 9.84938 29.2078L7.37485 34.681C7.26226 34.93 7.38799 35.1177 7.44721 35.1868C7.50644 35.2558 7.67276 35.4087 7.93594 35.3355L9.73738 34.834C9.94267 34.777 10.1502 34.7494 10.3548 34.7494C11.218 34.7494 12.0305 35.238 12.4217 36.0477L13.2353 37.7313C13.3541 37.9774 13.577 38.0019 13.6698 38.0001C13.7608 37.9989 13.9846 37.9694 14.0971 37.7204L18.0332 29.0142C17.6007 29.1386 17.1912 29.3615 16.8425 29.6838Z" fill="#F57600"/>
        <path d="M30.6248 34.681L28.1503 29.2078C27.7162 29.7311 27.1618 30.168 26.5048 30.4843C24.6874 31.3593 22.6386 31.0527 21.1571 29.6838C20.8085 29.3615 20.3989 29.1386 19.9663 29.0142L23.9024 37.7204C24.0149 37.9694 24.2388 37.9989 24.3297 38.0001C24.4225 38.0019 24.6454 37.9774 24.7642 37.7313L25.5778 36.0477C25.9689 35.238 26.7814 34.7494 27.6447 34.7494C27.8493 34.7494 28.0569 34.777 28.2621 34.834L30.0635 35.3355C30.3267 35.4087 30.4931 35.2559 30.5523 35.1868C30.6117 35.1176 30.7374 34.9299 30.6248 34.681Z" fill="#F57600"/>
        <path d="M32.5686 15.422C30.5135 14.0148 29.8758 11.2208 31.1169 9.06129C31.8629 7.76313 31.4746 6.48034 30.8625 5.71269C30.2504 4.94527 29.086 4.28138 27.6546 4.71964C25.2733 5.44899 22.6911 4.20568 21.7764 1.88887C21.2266 0.496227 19.9816 0 18.9999 0C18.0182 0 16.7731 0.496227 16.2233 1.88894C15.3087 4.20583 12.7266 5.44899 10.3451 4.71972C8.91353 4.28153 7.74941 4.94527 7.13718 5.71277C6.5251 6.48041 6.13686 7.76306 6.88283 9.06137C8.12392 11.2208 7.48623 14.0149 5.43111 15.4221C4.19567 16.2681 3.98897 17.5922 4.20732 18.5493C4.42567 19.5065 5.18656 20.6097 6.66671 20.8359C9.12884 21.212 10.9156 23.4525 10.7346 25.9367C10.6256 27.4301 11.532 28.4173 12.4165 28.8433C13.301 29.2693 14.638 29.3625 15.7376 28.3462C16.6522 27.5011 17.8262 27.0783 18.9998 27.0783C20.1738 27.0783 21.3472 27.5009 22.2618 28.3462C23.3616 29.3626 24.6987 29.2694 25.5831 28.8433C26.4676 28.4174 27.374 27.4301 27.2651 25.9368C27.0841 23.4526 28.8708 21.2121 31.3329 20.8359C32.8131 20.6097 33.5738 19.5064 33.7923 18.5493C34.0107 17.5921 33.8039 16.2679 32.5686 15.422ZM18.9999 24.9318C13.6134 24.9318 9.23126 20.5496 9.23126 15.1632C9.23126 9.77676 13.6134 5.39452 18.9999 5.39452C24.3864 5.39452 28.7685 9.77669 28.7685 15.1631C28.7684 20.5495 24.3863 24.9318 18.9999 24.9318Z" fill="white"/>
        <path d="M19 7.21582C14.6178 7.21582 11.0527 10.781 11.0527 15.1631C11.0527 19.5452 14.6178 23.1104 19 23.1104C23.3822 23.1104 26.9473 19.5452 26.9473 15.1631C26.9473 10.781 23.3822 7.21582 19 7.21582ZM23.0727 14.3926L18.1267 18.0051C17.9697 18.1198 17.7813 18.1805 17.5895 18.1805C17.5401 18.1805 17.4905 18.1764 17.441 18.1683C17.1999 18.1284 16.9848 17.9933 16.8442 17.7932L15.3648 15.6867C15.0757 15.275 15.1751 14.707 15.5866 14.4179C15.9982 14.1289 16.5661 14.2282 16.8553 14.6398L17.8016 15.9871L21.9985 12.9218C22.4047 12.6253 22.9745 12.7137 23.2711 13.12C23.5677 13.5261 23.4789 14.0958 23.0727 14.3926Z" fill="#F57600"/>
    </g>
    <defs>
        <clipPath id="clip0">
            <rect width="38" height="38" fill="white"/>
        </clipPath>
    </defs>
</svg>
