<svg width="38" height="38" viewBox="0 0 38 38" fill="none" xmlns="http://www.w3.org/2000/svg">
    <path d="M16.625 11.874V9.49902H2.375C1.06638 9.49902 0 10.5654 0 11.874V16.624H17.1261C16.796 15.1729 16.625 13.6102 16.625 11.874Z" fill="white"/>
    <path d="M37.9026 21.374C36.2829 23.8701 33.8129 25.9934 30.2741 28.0264C29.7302 28.3375 29.1175 28.499 28.5 28.499C27.8825 28.499 27.2697 28.3375 26.733 28.0311C23.1942 25.9934 20.7243 23.8678 19.1021 21.374H0V33.249C0 34.56 1.06638 35.624 2.375 35.624H35.625C36.936 35.624 38 34.56 38 33.249V21.374H37.9026ZM10.6875 28.499H5.9375C5.282 28.499 4.75 27.967 4.75 27.3115C4.75 26.656 5.282 26.124 5.9375 26.124H10.6875C11.343 26.124 11.875 26.656 11.875 27.3115C11.875 27.967 11.343 28.499 10.6875 28.499Z" fill="white"/>
    <path d="M37.2804 6.03466L28.9679 2.47216C28.6662 2.34391 28.3314 2.34391 28.0297 2.47216L19.7173 6.03466C19.2826 6.21991 19 6.64979 19 7.12479V11.8748C19 18.4084 21.4154 22.2274 27.9086 25.968C28.0915 26.0725 28.2957 26.1248 28.5 26.1248C28.7043 26.1248 28.9085 26.0725 29.0914 25.968C35.5846 22.2369 38 18.4179 38 11.8748V7.12479C38 6.64979 37.7174 6.21991 37.2804 6.03466ZM32.9911 11.4307L28.2411 17.3682C28.0131 17.6484 27.6711 17.8123 27.3125 17.8123C27.2959 17.8123 27.2769 17.8123 27.2626 17.8123C26.885 17.7957 26.5359 17.6009 26.3245 17.285L23.9495 13.7225C23.5861 13.1763 23.7334 12.44 24.2796 12.0767C24.8211 11.7157 25.5598 11.8582 25.9255 12.4068L27.4004 14.6179L31.1339 9.94866C31.5448 9.43804 32.2929 9.35729 32.8035 9.76341C33.3165 10.1695 33.3972 10.9177 32.9911 11.4307Z" fill="#F57600"/>
</svg>
