<svg width="38" height="38" viewBox="0 0 38 38" fill="none" xmlns="http://www.w3.org/2000/svg">
    <g clip-path="url(#clip0)">
        <path d="M26.6855 25.787L38 15.0374L30.9432 7.60938L26.6855 25.787Z" fill="#F57600"/>
        <path d="M22.8176 14.3265L23.0324 14.9966L25.8507 23.795L29.307 9.03527L29.5705 7.91133L29.82 6.84794L29.7792 6.83843L19.753 4.49023L19.7158 4.64676L22.6029 13.6568L22.8176 14.3265Z" fill="white"/>
        <path d="M18.7778 5.87238L18.4023 4.69963L18.2959 4.36816L8.4502 7.52232L8.81135 8.64872L15.8328 15.6703L16.3601 16.1982L16.8873 16.7253L18.0982 17.9361L18.5467 18.3842L18.9947 18.8328L24.7569 24.5939L24.7661 24.5637L22.0109 15.9665L21.7967 15.296L21.5826 14.6262L19.1543 7.04654L18.7778 5.87238Z" fill="#F57600"/>
        <path d="M7.31023 8.04395L7.29263 8.06155L0 15.3541L12.8892 28.2434L13.4164 28.7705L13.9436 29.2976L14.1679 29.5222L14.3294 29.6838L15.0034 30.3582L15.1467 30.5011L15.6771 31.0315L16.1263 31.4806L16.6294 31.9838L17.099 32.4533L17.5687 32.9223L18.2768 33.6315L20.5409 31.3668L20.5917 31.3166L20.6913 31.217L21.1913 30.717L21.4449 30.4634L21.7908 30.1169L22.0402 29.8675L22.1986 29.709L23.5412 28.367L23.61 28.2976L24.5708 27.3366L25.16 26.7482L25.5325 26.3757L25.5875 26.32L25.5584 26.2916L25.3221 26.0551L25.0517 25.7841L24.5449 25.278L18.5362 19.2687L18.0883 18.821L17.6403 18.3731L16.719 17.4518L16.1918 16.9246L15.6646 16.3974L9.23392 9.96728L8.255 8.98836L7.31023 8.04395ZM19.0935 25.365C20.1342 25.365 20.9782 26.2088 20.9782 27.2496C20.9782 28.2909 20.1342 29.1343 19.0935 29.1343C18.0525 29.1343 17.2085 28.2903 17.2085 27.2496C17.2085 26.2088 18.0524 25.365 19.0935 25.365Z" fill="white"/>
    </g>
    <defs>
        <clipPath id="clip0">
            <rect width="38" height="38" fill="white"/>
        </clipPath>
    </defs>
</svg>
