<svg width="38" height="38" viewBox="0 0 38 38" fill="none" xmlns="http://www.w3.org/2000/svg">
    <path d="M20.1152 0C17.6593 0 15.5879 2.07137 15.5879 4.52734C15.5879 6.9833 17.6593 9.05467 20.1152 9.05467C22.5712 9.05467 24.5683 6.9833 24.5683 4.52734C24.5683 2.07137 22.5712 0 20.1152 0Z" fill="#F57600"/>
    <path d="M25.0576 9.05469C23.8341 10.4113 22.0817 11.2812 20.1152 11.2812C18.1487 11.2812 16.3221 10.4113 15.0986 9.05469C14.0305 10.2391 13.3613 11.7908 13.3613 13.5078V14.6211C13.3613 15.2364 13.8593 15.7344 14.4746 15.7344H25.6816C26.2969 15.7344 26.7949 15.2364 26.7949 14.6211V13.5078C26.7949 11.7908 26.1257 10.2391 25.0576 9.05469Z" fill="#F57600"/>
    <path d="M10.7578 34.1702L5.08449 22.7958C4.53668 21.6975 3.20342 21.2496 2.10372 21.7944L0.620906 22.5289C0.0687934 22.8027 -0.155866 23.4737 0.119707 24.0249L6.79938 37.3842C7.07406 37.9352 7.74225 38.1544 8.28991 37.8843L9.75365 37.1591C10.8577 36.6123 11.3076 35.2727 10.7578 34.1702Z" fill="#F57600"/>
    <path d="M37.09 18.3841C36.1771 17.7161 34.9079 17.8497 34.151 18.6736L28.0651 26.1548C27.642 26.6001 26.8405 26.8673 26.4174 26.8673H21.2295C20.6059 26.8673 20.1162 26.3775 20.1162 25.754C20.1162 25.1305 20.6059 24.6407 21.2295 24.6407C22.7205 24.6407 24.3713 24.6407 25.6826 24.6407C26.9072 24.6407 27.9091 23.6388 27.9091 22.4142C27.9091 21.1896 26.9072 20.1876 25.6826 20.1876C20.4542 20.1876 25.4414 20.1876 19.849 20.1876C19.2941 20.1876 19.0174 19.8358 18.5798 19.4528C16.8573 17.9027 14.279 17.1559 11.6687 17.761C10.2193 18.0969 9.24196 18.6824 8.2507 19.4675L8.21767 19.4407L6.60742 20.8578L12.9356 33.547H14.8095H25.6826C27.7755 33.547 29.7795 32.545 31.0264 30.8751L37.5575 21.5236C38.2923 20.5438 38.0919 19.119 37.09 18.3841Z" fill="white"/>
</svg>
