<svg width="38" height="38" viewBox="0 0 38 38" fill="none" xmlns="http://www.w3.org/2000/svg">
    <path d="M35.6992 24.6406C35.6992 23.416 34.6973 22.4141 33.4727 22.4141C34.6973 22.4141 35.6992 21.4121 35.6992 20.1875C35.6992 18.9629 34.6973 17.9609 33.4727 17.9609H24.3438C25.702 13.8863 25.6797 12.5875 25.6797 10.0937C25.6797 8.24118 24.1607 6.75391 22.3398 6.75391H21.6719C21.2488 6.75391 20.7145 7.08796 20.6031 7.6C19.5016 11.8884 17.7795 16.8094 13.4336 17.8061V33.9162L17.2855 35.1945C18.421 35.5729 19.6012 35.7734 20.8035 35.7734H31.2461C32.4758 35.7734 33.4727 34.7765 33.4727 33.5469C33.4727 32.3171 32.4758 31.3203 31.2461 31.3203H33.4727C34.6973 31.3203 35.6992 30.3184 35.6992 29.0937C35.6992 27.8691 34.6973 26.8672 33.4727 26.8672C34.6973 26.8672 35.6992 25.8652 35.6992 24.6406Z" fill="white"/>
    <path d="M7.86719 15.7344H3.41406C2.79871 15.7344 2.30078 16.2323 2.30078 16.8477V36.8867C2.30078 37.5021 2.79871 38 3.41406 38H7.86719C9.70885 38 11.207 36.5018 11.207 34.6602V19.0742C11.207 17.2326 9.70885 15.7344 7.86719 15.7344ZM7.86719 33.5469C7.25236 33.5469 6.75391 33.0484 6.75391 32.4336C6.75391 31.8186 7.25236 31.3203 7.86719 31.3203C8.48202 31.3203 8.98047 31.8186 8.98047 32.4336C8.98047 33.0484 8.48202 33.5469 7.86719 33.5469Z" fill="#F57600"/>
    <path d="M17.6153 4.90918L16.041 3.33492C15.6062 2.90008 14.9016 2.90008 14.4668 3.33492C14.0319 3.76977 14.0319 4.47433 14.4668 4.90918L16.041 6.48343C16.4759 6.91828 17.1803 6.91828 17.6153 6.48343C18.0501 6.04858 18.0501 5.34403 17.6153 4.90918Z" fill="#F57600"/>
    <path d="M30.2119 3.33492C29.7771 2.90008 29.0725 2.90008 28.6377 3.33492L27.0634 4.90918C26.6286 5.34403 26.6286 6.04858 27.0634 6.48343C27.4983 6.91828 28.2028 6.91828 28.6377 6.48343L30.2119 4.90918C30.6468 4.47433 30.6468 3.76977 30.2119 3.33492Z" fill="#F57600"/>
    <path d="M22.3398 0C21.7163 0 21.2266 0.48977 21.2266 1.11328V3.41406C21.2266 4.03757 21.7163 4.52734 22.3398 4.52734C22.9634 4.52734 23.4531 4.03757 23.4531 3.41406V1.11328C23.4531 0.48977 22.9634 0 22.3398 0Z" fill="#F57600"/>
</svg>
