<svg width="18" height="18" viewBox="0 0 18 18" fill="none" xmlns="http://www.w3.org/2000/svg">
    <path d="M17.5053 3.41537C17.1716 3.03415 16.6959 2.82417 16.166 2.82417H3.35399L3.22504 1.85738C3.08606 0.815872 2.36096 0 1.5742 0H0.632812C0.341537 0 0.105469 0.236069 0.105469 0.527344C0.105469 0.818619 0.341537 1.05469 0.632812 1.05469H1.5742C1.74339 1.05469 2.10168 1.41243 2.17955 1.99677L3.68907 13.3185C3.75554 13.8175 4.01193 14.2847 4.41101 14.6341C4.70695 14.8932 5.05673 15.0656 5.42313 15.1376C5.27385 15.4122 5.18898 15.7267 5.18898 16.0605C5.18898 17.13 6.0591 18 7.12848 18C8.19786 18 9.06798 17.13 9.06798 16.0605C9.06798 15.7419 8.99025 15.4413 8.85347 15.1758H11.6168C11.48 15.4413 11.4023 15.7419 11.4023 16.0605C11.4023 17.13 12.2724 18 13.3418 18C14.4112 18 15.2813 17.13 15.2813 16.0605C15.2813 15.7419 15.2036 15.4413 15.0668 15.1758H16.4485C16.7396 15.1758 16.9758 14.9396 16.9758 14.6485C16.9758 14.3572 16.7396 14.1211 16.4485 14.1211H5.81053C5.29527 14.1211 4.80254 13.6897 4.73442 13.1789L4.62415 12.3515H8.7285C8.72864 12.3515 8.72878 12.3517 8.72891 12.3517C8.72905 12.3517 8.72919 12.3515 8.72946 12.3515H12.1174C12.1175 12.3515 12.1176 12.3517 12.1179 12.3517C12.1181 12.3517 12.1181 12.3515 12.1182 12.3515H15.0363C15.5397 12.3515 16.0367 12.1591 16.4358 11.8099C16.8349 11.4605 17.0913 10.9932 17.1578 10.4941L17.9142 4.82108C17.9842 4.29579 17.8391 3.7966 17.5053 3.41537ZM8.01329 16.0605C8.01329 16.5484 7.61641 16.9453 7.12848 16.9453C6.64069 16.9453 6.24367 16.5484 6.24367 16.0605C6.24367 15.5727 6.64069 15.1758 7.12848 15.1758C7.61641 15.1758 8.01329 15.5727 8.01329 16.0605ZM14.2266 16.0605C14.2266 16.5484 13.8297 16.9453 13.3418 16.9453C12.8539 16.9453 12.457 16.5484 12.457 16.0605C12.457 15.5727 12.8539 15.1758 13.3418 15.1758C13.8297 15.1758 14.2266 15.5727 14.2266 16.0605ZM16.7117 4.11012C16.8423 4.25926 16.8981 4.4621 16.8687 4.68155L16.5516 7.0605H12.9635L13.1755 3.87886H16.166C16.3875 3.87886 16.5813 3.96098 16.7117 4.11012ZM9.22275 11.2968L9.01057 8.11519H11.8361L11.6239 11.2968H9.22275ZM8.94026 7.0605L8.72823 3.87886H12.1185L11.9064 7.0605H8.94026ZM7.6712 3.87886L7.88324 7.0605H3.91869L3.49448 3.87886H7.6712ZM4.05931 8.11519H7.95355L8.16573 11.2968H4.48352L4.05931 8.11519ZM15.0363 11.2968H12.681L12.8931 8.11519H16.411L16.1124 10.3548C16.0443 10.8655 15.5514 11.2968 15.0363 11.2968Z" fill="#38294B"/>
</svg>
