<svg width="16" height="16" viewBox="0 0 16 16" fill="none" xmlns="http://www.w3.org/2000/svg">
    <path d="M8.00033 0C4.77491 0 2.15088 2.67119 2.15088 5.95454C2.15088 7.79111 3.07976 10.0203 4.91179 12.5801C6.25248 14.4535 7.57361 15.7895 7.6292 15.8455C7.73139 15.9484 7.86583 16 8.00042 16C8.13111 16 8.26189 15.9513 8.36327 15.8537C8.41898 15.8 9.74346 14.518 11.0867 12.6705C12.9202 10.1486 13.8498 7.88905 13.8498 5.95451C13.8498 2.67119 11.2257 0 8.00033 0ZM8.00033 8.5252C6.42345 8.5252 5.1406 7.24233 5.1406 5.66548C5.1406 4.08863 6.42348 2.80576 8.00033 2.80576C9.57717 2.80576 10.8601 4.08863 10.8601 5.66548C10.8601 7.24233 9.57714 8.5252 8.00033 8.5252Z" fill="white"/>
</svg>
