<svg width="210" height="69" viewBox="0 0 210 69" fill="none" xmlns="http://www.w3.org/2000/svg">
    <g clip-path="url(#clip0)">
        <path d="M63.8553 45.4608C63.8553 49.4938 60.9796 54.4066 57.4403 56.4598L38.3427 67.4587C34.8034 69.4385 29.052 69.4385 25.5864 67.4587L6.41503 56.4598C2.8757 54.48 0 49.4938 0 45.4608V23.463C0 19.43 2.8757 14.5172 6.41503 12.464L25.5864 1.46508C29.1257 -0.514728 34.8771 -0.514728 38.3427 1.46508L57.514 12.464C61.0534 14.4438 63.9291 19.43 63.9291 23.463V45.4608H63.8553Z" fill="#38294B"/>
        <path d="M21.4575 19.2114H25.1443L25.2181 28.1572L21.4575 29.2571V19.2114Z" fill="white"/>
        <path d="M20.2781 19.2114V29.5504L17.4761 30.357C17.2549 30.4303 17.0337 30.5037 16.8862 30.6503C16.8125 30.7236 16.7388 30.7236 16.665 30.797V19.2114H20.2781Z" fill="white"/>
        <path d="M16.5908 49.7884V33.29V33.2167C16.6646 32.4834 17.107 31.8235 17.8443 31.6035L20.7938 30.7969L21.5311 30.5769L23.4483 30.0637L25.3654 29.4771C25.6603 30.357 26.3977 31.0902 27.2825 31.3102C27.2825 31.3102 27.2825 31.3102 29.6421 31.9701C26.029 32.9967 22.2685 34.0966 22.2685 34.0966C21.015 34.5366 20.2039 35.7098 20.2039 36.9563V43.9957V49.7884H16.5908Z" fill="white"/>
        <path d="M27.3559 37.6896C26.0287 38.0562 25.2176 39.2294 25.2176 40.6226V49.7884H21.5308V43.9956V36.9563C21.5308 36.1497 22.0469 35.4898 22.7843 35.2698L34.2133 32.0434C36.5729 31.3835 36.5729 31.3835 36.5729 31.3835C37.9001 31.0169 38.7112 29.8436 38.7112 28.4504V19.2847H42.398V32.1168C42.398 32.7034 42.1031 33.2167 41.6607 33.5833C41.5132 33.7299 41.3657 33.8033 41.1445 33.8766L29.7155 37.1029C27.3559 37.6896 27.3559 37.6896 27.3559 37.6896Z" fill="white"/>
        <path d="M36.5734 37.6896C36.5734 37.6896 36.5734 37.6896 34.2139 37.0297C37.8269 36.0031 41.5137 34.9032 41.5875 34.9032C42.841 34.4633 43.6521 33.2901 43.6521 32.0435V19.2114H47.3389V35.7098V35.7832C47.2651 36.5164 46.8227 37.1764 46.0854 37.3963L43.1359 38.2029L42.3986 38.4229L40.4814 38.9362L38.4906 39.5961C38.1956 38.7162 37.4582 37.9829 36.5734 37.6896Z" fill="white"/>
        <path d="M42.3987 49.7884H38.7119L38.6382 40.7692L42.3987 39.7427V49.7884Z" fill="white"/>
        <path d="M43.5781 49.7885V39.3762L46.3801 38.5696C46.6013 38.4963 46.8225 38.4229 46.97 38.2763C47.0437 38.203 47.1175 38.203 47.1912 38.1296V49.7152H43.5781V49.7885Z" fill="white"/>
        <path d="M172.763 28.4507C173.132 28.4507 173.501 28.4507 173.869 28.4507C174.386 28.4507 174.902 28.4507 175.418 28.4507C175.713 28.4507 175.786 28.3774 175.786 28.0841C175.786 24.7844 175.786 21.4847 175.786 18.185C175.786 18.1117 175.786 18.0384 175.786 17.8917C175.786 17.5251 175.934 17.3784 176.303 17.3784C176.966 17.3784 177.556 17.3784 178.22 17.3784C178.588 17.3784 178.736 17.5984 178.736 17.965C178.736 19.2849 178.736 20.6781 178.736 21.998C178.736 24.2711 178.736 26.5442 178.736 28.8173C178.736 29.0373 178.81 29.2573 178.957 29.4039C179.4 29.8439 179.842 30.3572 180.284 30.7971C180.579 31.0904 180.579 31.3837 180.284 31.677C179.916 32.0437 179.473 32.4103 179.105 32.7769C178.81 33.0702 178.588 33.0702 178.294 32.7769C177.777 32.2636 177.335 31.7504 176.819 31.2371C176.671 31.0904 176.524 31.0171 176.303 31.0171C172.468 31.0171 168.634 31.0171 164.874 31.0171C164.726 31.0171 164.652 31.0171 164.505 31.0171C164.284 31.0171 164.136 30.8705 164.062 30.5771C164.062 30.5038 164.062 30.4305 164.062 30.2838C164.062 26.2509 164.062 22.1446 164.062 18.1117C164.062 17.4517 164.21 17.3784 164.8 17.3784C165.316 17.3784 165.832 17.3784 166.275 17.3784C166.791 17.3784 166.938 17.5251 166.938 18.0384C166.938 21.338 166.938 24.711 166.938 28.0107C166.938 28.3774 166.938 28.3774 167.307 28.3774C168.044 28.3774 168.782 28.3774 169.519 28.3774C169.888 28.3774 169.888 28.3774 169.888 28.0107C169.888 24.711 169.888 21.4114 169.888 18.185C169.888 18.1117 169.888 17.965 169.888 17.8917C169.888 17.5984 170.035 17.4517 170.33 17.4517C170.994 17.4517 171.657 17.4517 172.321 17.4517C172.616 17.4517 172.763 17.6717 172.763 17.965C172.763 18.0384 172.763 18.1117 172.763 18.2583C172.763 21.558 172.763 24.8577 172.763 28.0841C172.763 28.2307 172.763 28.304 172.763 28.4507Z" fill="#38294B"/>
        <path d="M191.861 22.5846C191.787 22.6579 191.713 22.7312 191.64 22.8045C190.829 24.3444 190.091 25.8842 189.28 27.4241C188.764 28.4507 188.248 29.4039 187.805 30.4305C187.584 30.8704 187.289 31.0904 186.773 31.0171C186.11 31.0171 185.372 31.0171 184.709 31.0171C184.266 31.0171 184.119 30.8704 184.119 30.4305C184.119 26.2509 184.119 22.1446 184.119 17.965C184.119 17.5984 184.266 17.3784 184.709 17.3784C185.298 17.3784 185.888 17.3784 186.404 17.3784C186.847 17.3784 187.068 17.525 187.068 18.0383C187.068 20.5314 187.068 23.0245 187.068 25.5176C187.068 25.5909 187.068 25.6643 187.068 25.7376C187.068 25.8109 187.142 25.8842 187.142 25.8842C187.216 25.8842 187.216 25.8842 187.289 25.8109C187.363 25.8109 187.363 25.7376 187.363 25.6643C188.617 23.0978 189.944 20.5314 191.197 17.965C191.418 17.525 191.713 17.3051 192.23 17.3784C192.893 17.3784 193.557 17.3784 194.22 17.3784C194.737 17.3784 194.958 17.525 194.958 18.1117C194.958 22.2179 194.958 26.2509 194.958 30.3571C194.958 30.9438 194.81 31.0904 194.22 31.0904C193.704 31.0904 193.188 31.0904 192.672 31.0904C192.156 31.0904 192.008 30.9438 192.008 30.4305C192.008 27.9374 192.008 25.4443 192.008 22.9512C192.008 22.8779 192.008 22.7312 192.008 22.6579C191.935 22.5846 191.861 22.5846 191.861 22.5846Z" fill="#38294B"/>
        <path d="M132.503 24.2709C132.503 22.8777 132.503 21.4845 132.503 20.0913C132.503 19.578 132.651 19.0648 132.798 18.6248C133.093 17.8915 133.757 17.5249 134.568 17.3783C134.863 17.3049 135.232 17.3049 135.527 17.3049C137.223 17.3049 138.845 17.3049 140.541 17.3049C140.983 17.3049 141.425 17.3783 141.794 17.5249C142.753 17.8182 143.195 18.6248 143.343 19.578C143.416 19.9447 143.416 20.3846 143.416 20.7513C143.416 23.171 143.416 25.6641 143.416 28.0839C143.416 28.7438 143.343 29.4038 143.048 29.9904C142.679 30.6503 142.163 31.0169 141.425 31.1636C140.983 31.2369 140.614 31.2369 140.172 31.2369C138.476 31.2369 136.78 31.2369 135.084 31.2369C133.536 31.1636 132.651 30.2837 132.577 28.8171C132.577 28.5238 132.577 28.3039 132.577 28.0106C132.503 26.764 132.503 25.5175 132.503 24.2709ZM135.379 24.1976C135.379 25.2975 135.379 26.3974 135.379 27.4973C135.379 28.2305 135.748 28.5972 136.485 28.5972C137.444 28.5972 138.402 28.5972 139.361 28.5972C140.098 28.5972 140.393 28.2305 140.393 27.5706C140.393 25.3708 140.393 23.171 140.393 20.8979C140.393 20.238 140.024 19.8713 139.287 19.8713C138.329 19.8713 137.37 19.8713 136.485 19.8713C135.748 19.8713 135.379 20.238 135.379 20.9712C135.379 22.0711 135.379 23.171 135.379 24.1976Z" fill="#38294B"/>
        <path d="M149.979 26.6175C149.315 26.3975 148.873 26.0309 148.652 25.371C148.504 24.931 148.357 24.4911 148.357 24.0511C148.283 22.7312 148.283 21.4114 148.357 20.0915C148.357 19.6515 148.431 19.2116 148.652 18.8449C149.02 17.965 149.758 17.5984 150.643 17.4517C151.011 17.3784 151.38 17.3784 151.749 17.3784C153.813 17.3784 155.878 17.3784 157.869 17.3784C158.532 17.3784 158.606 17.5251 158.606 18.1117C158.606 22.1446 158.606 26.2509 158.606 30.2838C158.606 30.8704 158.459 31.0171 157.869 31.0171C157.353 31.0171 156.836 31.0171 156.32 31.0171C155.878 31.0171 155.657 30.8705 155.657 30.3572C155.657 29.2573 155.657 28.1574 155.657 26.9842C155.657 26.7642 155.583 26.6909 155.362 26.6909C154.624 26.6909 153.887 26.6909 153.15 26.6909C153.002 26.6909 152.855 26.7642 152.781 26.9108C152.265 28.0841 151.675 29.1839 151.159 30.3572C150.938 30.7971 150.716 31.0171 150.2 30.9438C149.61 30.9438 149.02 30.9438 148.431 30.9438C147.914 30.9438 147.841 30.7238 148.062 30.2838C148.652 29.0373 149.242 27.7907 149.905 26.5442C149.905 26.6909 149.905 26.6909 149.979 26.6175ZM155.657 22.0713C155.657 21.4847 155.657 20.8981 155.657 20.3115C155.657 20.1648 155.583 20.0182 155.436 20.0182C154.403 20.0182 153.371 20.0182 152.339 20.0182C151.675 20.0182 151.306 20.3848 151.306 21.0447C151.306 21.7047 151.306 22.3646 151.306 23.0245C151.306 23.7578 151.675 24.0511 152.339 24.0511C153.371 24.0511 154.403 24.0511 155.436 24.0511C155.583 24.0511 155.657 23.9778 155.657 23.8311C155.657 23.3178 155.657 22.7312 155.657 22.0713Z" fill="#38294B"/>
        <path d="M84.7962 24.271C84.7962 26.3241 84.7962 28.3773 84.7962 30.3571C84.7962 30.9437 84.6487 31.017 84.0588 31.0903C83.5427 31.0903 83.0265 31.0903 82.5104 31.0903C81.9942 31.0903 81.8467 30.9437 81.8467 30.4304C81.8467 28.9639 81.8467 27.4974 81.8467 26.0308C81.8467 25.6642 81.8467 25.6642 81.4781 25.6642C80.1508 25.6642 78.8973 25.6642 77.5701 25.6642C77.3489 25.6642 77.2751 25.7375 77.2751 25.9575C77.2751 27.424 77.2751 28.8906 77.2751 30.3571C77.2751 30.5037 77.2751 30.6504 77.2014 30.797C77.1276 31.017 76.9802 31.0903 76.759 31.0903C76.0953 31.0903 75.5055 31.0903 74.8418 31.0903C74.5469 31.0903 74.3994 30.9437 74.3257 30.6504C74.3257 30.5771 74.3257 30.5037 74.3257 30.3571C74.3257 26.3241 74.3257 22.2912 74.3257 18.2582C74.3257 18.1849 74.3257 18.1116 74.3257 17.9649C74.3257 17.5983 74.4732 17.4517 74.8418 17.4517C75.5055 17.4517 76.0953 17.4517 76.759 17.4517C77.1276 17.4517 77.2751 17.6716 77.2751 18.1116C77.2751 19.6514 77.2751 21.1913 77.2751 22.6578C77.2751 22.8778 77.3489 22.9511 77.5701 22.9511C78.8973 22.9511 80.2246 22.9511 81.5518 22.9511C81.8467 22.9511 81.8467 22.8778 81.8467 22.6578C81.8467 21.118 81.8467 19.6514 81.8467 18.1116C81.8467 17.5983 81.9942 17.4517 82.5104 17.4517C83.0265 17.4517 83.6164 17.4517 84.1326 17.4517C84.575 17.4517 84.7225 17.5983 84.7225 18.0383C84.7962 20.0914 84.7962 22.2179 84.7962 24.271Z" fill="#38294B"/>
        <path d="M104.042 24.271C104.042 22.8778 104.042 21.4846 104.042 20.0181C104.042 19.4315 104.189 18.8449 104.484 18.3316C104.853 17.745 105.442 17.4517 106.106 17.305C106.401 17.2317 106.77 17.2317 107.065 17.2317C108.613 17.2317 110.235 17.2317 111.784 17.2317C112.447 17.2317 113.111 17.3783 113.701 17.745C114.365 18.2583 114.659 18.9915 114.733 19.7248C114.807 20.3114 114.733 20.898 114.733 21.4846C114.733 21.7779 114.586 21.9979 114.217 21.9979C113.553 21.9979 112.964 21.9979 112.3 21.9979C111.931 21.9979 111.858 21.8512 111.784 21.4846C111.784 21.1913 111.784 20.9713 111.784 20.678C111.71 20.1647 111.415 19.8714 110.899 19.8714C109.94 19.8714 108.908 19.8714 107.95 19.8714C107.36 19.8714 106.991 20.3114 106.991 20.898C106.991 22.5845 106.991 24.271 106.991 25.8842C106.991 26.3975 106.991 26.9841 106.991 27.4974C106.991 28.2306 107.36 28.5973 108.097 28.5973C108.982 28.5973 109.867 28.5973 110.751 28.5973C111.489 28.5973 111.784 28.2306 111.784 27.5707C111.784 27.3507 111.784 27.1307 111.784 26.9108C111.784 26.6175 111.931 26.4708 112.226 26.4708C112.89 26.4708 113.553 26.4708 114.217 26.4708C114.438 26.4708 114.659 26.6174 114.659 26.8374C114.659 27.7173 114.807 28.5973 114.512 29.4038C114.217 30.5771 113.406 31.0904 112.226 31.1637C111.194 31.237 110.162 31.1637 109.129 31.237C108.318 31.237 107.507 31.237 106.77 31.237C106.106 31.237 105.516 31.0904 104.926 30.6504C104.336 30.2104 104.115 29.6238 104.042 28.8906C103.968 27.5707 103.968 26.3241 103.968 25.0043C104.042 24.7843 104.042 24.5643 104.042 24.271Z" fill="#38294B"/>
        <path d="M203.29 25.4443C203.29 25.591 203.29 25.6643 203.29 25.7376C203.29 26.5442 203.29 27.3508 203.29 28.1574C203.29 28.3774 203.363 28.4507 203.585 28.4507C205.502 28.4507 207.419 28.4507 209.336 28.4507C209.852 28.4507 210 28.5973 210 29.1106C210 29.5506 210 29.9905 210 30.4305C210 30.8704 209.852 31.0171 209.41 31.0171C206.608 31.0171 203.732 31.0171 200.93 31.0171C200.488 31.0171 200.34 30.8704 200.34 30.4305C200.34 26.2509 200.34 22.1446 200.34 17.965C200.34 17.5251 200.488 17.3784 200.93 17.3784C203.658 17.3784 206.46 17.3784 209.189 17.3784C209.557 17.3784 209.778 17.5251 209.778 17.965C209.778 18.4783 209.778 18.9183 209.778 19.4316C209.778 19.8715 209.631 20.0182 209.189 20.0182C208.156 20.0182 207.124 20.0182 206.092 20.0182C205.281 20.0182 204.396 20.0182 203.585 20.0182C203.363 20.0182 203.29 20.0915 203.29 20.3115C203.29 21.0447 203.29 21.7047 203.29 22.4379C203.29 22.6579 203.363 22.7312 203.585 22.7312C204.986 22.7312 206.313 22.7312 207.714 22.7312C208.23 22.7312 208.378 22.8779 208.378 23.3912C208.378 23.8311 208.378 24.2711 208.378 24.711C208.378 25.2243 208.23 25.371 207.714 25.371C206.313 25.371 204.986 25.371 203.585 25.371C203.511 25.4443 203.363 25.4443 203.29 25.4443Z" fill="#38294B"/>
        <path d="M94.7507 17.4517C95.1931 17.4517 95.5618 17.4517 96.0042 17.4517C96.3729 17.4517 96.5203 17.6716 96.6678 17.965C97.2577 19.7248 97.8476 21.5579 98.4375 23.3178C99.1748 25.5909 99.9122 27.7907 100.65 30.0638C100.723 30.2104 100.797 30.4304 100.797 30.5771C100.871 30.8704 100.723 31.017 100.428 31.017C99.691 31.017 99.0274 31.017 98.29 31.017C97.9213 31.017 97.7001 30.797 97.6264 30.4304C97.4052 29.7705 97.2577 29.0372 97.0365 28.3773C97.0365 28.304 96.889 28.1573 96.8153 28.1573C95.488 28.1573 94.2345 28.1573 92.9073 28.1573C92.7598 28.1573 92.6861 28.2306 92.6123 28.3773C92.3911 29.0372 92.1699 29.7705 92.0224 30.4304C91.9487 30.797 91.7275 30.9437 91.3588 30.9437C90.6215 30.9437 89.9578 30.9437 89.2205 30.9437C88.9255 30.9437 88.7781 30.797 88.8518 30.4304C89.4417 28.6706 89.9578 26.9108 90.5477 25.1509C91.3588 22.7312 92.0962 20.3114 92.9073 17.8916C93.0547 17.4517 93.276 17.305 93.7184 17.2317C93.8658 17.2317 94.0871 17.2317 94.2345 17.2317C94.382 17.4517 94.5295 17.4517 94.7507 17.4517ZM96.0779 25.5909C96.0779 25.5176 96.0779 25.4442 96.0779 25.3709C95.7092 24.1244 95.3406 22.8778 94.9719 21.6313C94.9719 21.5579 94.8244 21.4846 94.8244 21.4113C94.7507 21.4846 94.6769 21.5579 94.6769 21.6313C94.382 22.5112 94.1608 23.3911 93.8658 24.271C93.7184 24.711 93.6446 25.1509 93.4972 25.5909C94.3083 25.5909 95.1194 25.5909 96.0779 25.5909Z" fill="#38294B"/>
        <path d="M124.909 25.4442C124.909 27.1307 124.909 28.7439 124.909 30.4304C124.909 30.9437 124.761 31.0903 124.245 31.0903C123.729 31.0903 123.139 31.0903 122.623 31.0903C122.107 31.0903 121.959 30.9437 121.959 30.4304C121.959 29.6971 121.959 28.8906 121.959 28.1573C121.959 25.5909 121.959 23.0245 121.959 20.458C121.959 20.0914 121.959 20.0914 121.591 20.0914C120.706 20.0914 119.821 20.0914 119.01 20.0914C118.494 20.0914 118.346 19.9448 118.346 19.4315C118.346 18.9915 118.346 18.5516 118.346 18.1849C118.346 17.6716 118.494 17.4517 119.084 17.4517C121.148 17.4517 123.139 17.4517 125.204 17.4517C126.088 17.4517 127.047 17.4517 127.932 17.4517C128.448 17.4517 128.595 17.5983 128.595 18.1116C128.595 18.5516 128.595 19.0648 128.595 19.5048C128.595 19.9448 128.448 20.0914 128.006 20.0914C127.342 20.0914 126.678 20.0914 126.015 20.0914C125.794 20.0914 125.499 20.0914 125.277 20.0914C125.056 20.0914 124.982 20.1647 124.982 20.3847C124.982 21.7046 124.982 23.0978 124.982 24.4177C124.909 24.711 124.909 25.0776 124.909 25.4442Z" fill="#38294B"/>
        <path d="M90.0313 44.7289C90.0313 43.1891 90.0313 41.6492 90.0313 40.1094C90.0313 38.8628 90.8424 38.0562 92.096 37.8363C92.3909 37.7629 92.7596 37.7629 93.0545 37.7629C94.7504 37.7629 96.3726 37.7629 98.0686 37.7629C98.511 37.7629 98.9534 37.8363 99.3221 37.9829C100.281 38.2762 100.723 39.0095 100.871 39.9627C100.944 40.1827 100.944 40.476 100.944 40.696C100.944 43.4091 100.944 46.1955 100.944 48.9085C100.944 49.4218 100.797 49.9351 100.649 50.3751C100.281 51.255 99.4695 51.6216 98.5847 51.6949C98.0686 51.7683 97.4787 51.7683 96.9625 51.7683C95.4878 51.7683 94.0131 51.7683 92.6121 51.6949C91.6535 51.6216 90.8424 51.1816 90.4 50.2284C90.1788 49.7151 90.1788 49.1285 90.1051 48.5419C89.9576 47.2954 89.9576 45.9755 90.0313 44.7289ZM97.9211 44.7289C97.9211 43.629 97.9211 42.5291 97.9211 41.4293C97.9211 40.696 97.5524 40.3294 96.8151 40.3294C95.8565 40.3294 94.8979 40.3294 94.0131 40.3294C93.2757 40.3294 92.907 40.696 92.907 41.4293C92.907 43.629 92.907 45.8288 92.907 48.0286C92.907 48.7619 93.2757 49.1285 94.0131 49.1285C94.9717 49.1285 95.8565 49.1285 96.8151 49.1285C97.6261 49.1285 97.9211 48.7619 97.9211 48.0286C97.9211 46.9287 97.9211 45.8288 97.9211 44.7289Z" fill="#38294B"/>
        <path d="M84.7962 44.7289C84.7962 46.7821 84.7962 48.8352 84.7962 50.815C84.7962 51.4016 84.6487 51.5483 84.0588 51.5483C83.5427 51.5483 82.9528 51.5483 82.4366 51.5483C81.9942 51.5483 81.8468 51.4016 81.8468 50.9617C81.8468 50.8883 81.8468 50.815 81.8468 50.6684C81.8468 47.3687 81.8468 44.1423 81.8468 40.8426C81.8468 40.476 81.8468 40.476 81.4781 40.476C80.2246 40.476 78.8973 40.476 77.6438 40.476C77.2751 40.476 77.2751 40.476 77.2751 40.8426C77.2751 44.069 77.2751 47.3687 77.2751 50.595C77.2751 50.6684 77.2751 50.7417 77.2751 50.815C77.2751 51.255 77.1277 51.4016 76.6115 51.4016C76.0954 51.4016 75.5792 51.4016 74.9893 51.4016C74.3994 51.4016 74.252 51.255 74.252 50.6684C74.252 49.7884 74.252 48.9819 74.252 48.1019C74.252 44.8756 74.252 41.7226 74.252 38.4962C74.252 37.8363 74.3994 37.7629 74.9893 37.7629C78.0125 37.7629 81.0357 37.7629 84.0588 37.7629C84.575 37.7629 84.7225 37.9096 84.7225 38.4229C84.7962 40.6227 84.7962 42.6758 84.7962 44.7289Z" fill="#38294B"/>
        <path d="M116.134 44.7289C116.134 46.7821 116.134 48.7619 116.134 50.815C116.134 51.4016 115.986 51.5483 115.396 51.5483C114.88 51.5483 114.364 51.5483 113.922 51.5483C113.405 51.5483 113.258 51.4016 113.258 50.8883C113.258 47.5887 113.258 44.289 113.258 40.9893C113.258 40.476 113.332 40.5493 112.816 40.5493C112.152 40.5493 111.415 40.5493 110.751 40.5493C110.53 40.5493 110.53 40.6227 110.456 40.8426C110.235 42.0159 110.014 43.2624 109.866 44.4356C109.719 45.4622 109.497 46.4888 109.35 47.5153C109.202 48.3952 109.129 49.2752 108.686 50.0817C108.244 51.1083 107.433 51.6216 106.401 51.6949C105.958 51.7682 105.589 51.7682 105.147 51.7682C104.705 51.7682 104.557 51.6216 104.557 51.1816C104.557 50.6684 104.557 50.1551 104.557 49.7151C104.557 49.3485 104.705 49.2018 105.073 49.2018C105.958 49.1285 106.253 48.9085 106.401 48.0286C106.695 46.3421 106.99 44.7289 107.212 43.0424C107.433 41.8692 107.654 40.6227 107.802 39.4494C107.875 39.2295 107.875 39.0095 107.949 38.7162C108.023 38.2029 108.244 37.9829 108.76 37.9829C109.792 37.9829 110.825 37.9829 111.783 37.9829C112.963 37.9829 114.217 37.9829 115.396 37.9829C115.986 37.9829 116.134 38.1296 116.134 38.7162C116.134 40.6227 116.134 42.6758 116.134 44.7289Z" fill="#38294B"/>
        <path d="M121.517 44.7291C121.517 42.676 121.517 40.6228 121.517 38.5697C121.517 37.9831 121.664 37.8364 122.254 37.8364C122.77 37.8364 123.286 37.8364 123.802 37.8364C124.319 37.8364 124.466 37.9831 124.466 38.4964C124.466 39.5963 124.466 40.6228 124.466 41.7227C124.466 41.9427 124.54 42.016 124.761 42.016C125.941 42.016 127.121 42.016 128.3 42.016C129.922 42.0893 130.807 43.0426 130.881 44.5824C130.955 45.9756 130.881 47.3688 130.881 48.762C130.881 49.5686 130.66 50.3019 129.996 50.8152C129.48 51.2551 128.89 51.4018 128.227 51.4018C126.162 51.4018 124.097 51.4018 122.033 51.4018C121.664 51.4018 121.517 51.2551 121.517 50.7418C121.517 48.9087 121.517 47.0755 121.517 45.2424C121.517 45.1691 121.517 44.9491 121.517 44.7291ZM124.466 46.7822C124.466 47.3688 124.466 48.0288 124.466 48.6154C124.466 48.8354 124.54 48.9087 124.761 48.9087C125.498 48.9087 126.236 48.9087 126.973 48.9087C127.637 48.9087 128.005 48.5421 128.005 47.8821C128.005 47.1489 128.005 46.4889 128.005 45.7557C128.005 45.0957 127.637 44.7291 126.973 44.7291C126.236 44.7291 125.498 44.7291 124.761 44.7291C124.54 44.7291 124.466 44.8024 124.466 45.0224C124.466 45.609 124.466 46.1956 124.466 46.7822Z" fill="#38294B"/>
        <path d="M135.305 44.7291C135.305 46.7822 135.305 48.8354 135.305 50.8152C135.305 51.4018 135.158 51.4751 134.642 51.4751C134.126 51.4751 133.536 51.4751 133.02 51.4751C132.577 51.4751 132.43 51.3285 132.43 50.8885C132.43 46.7089 132.43 42.6026 132.43 38.423C132.43 37.9831 132.577 37.8364 133.02 37.8364C133.536 37.8364 134.126 37.8364 134.642 37.8364C135.158 37.8364 135.305 37.9831 135.305 38.4964C135.305 40.6228 135.305 42.676 135.305 44.7291Z" fill="#38294B"/>
    </g>
    <defs>
        <clipPath id="clip0">
            <rect width="210" height="69" fill="white"/>
        </clipPath>
    </defs>
</svg>

