<svg width="165" height="54" viewBox="0 0 165 54" fill="none" xmlns="http://www.w3.org/2000/svg">
    <g clip-path="url(#clip0)">
        <path d="M50.1721 35.5769C50.1721 38.7331 47.9126 42.578 45.1317 44.1848L30.1264 52.7927C27.3455 54.3421 22.8265 54.3421 20.1036 52.7927L5.04038 44.1848C2.25948 42.6354 0 38.7331 0 35.5769V18.3612C0 15.205 2.25948 11.3601 5.04038 9.75332L20.1036 1.14546C22.8845 -0.403955 27.4034 -0.403955 30.1264 1.14546L45.1896 9.75332C47.9705 11.3027 50.23 15.205 50.23 18.3612V35.5769H50.1721Z" fill="white"/>
        <path d="M16.8589 15.0352H19.7557L19.8136 22.0362L16.8589 22.897V15.0352Z" fill="#38294B"/>
        <path d="M15.9326 15.0352V23.1265L13.731 23.7578C13.5572 23.8152 13.3834 23.8726 13.2676 23.9873C13.2096 24.0447 13.1517 24.0447 13.0938 24.1021V15.0352H15.9326Z" fill="#38294B"/>
        <path d="M13.0352 38.9652V26.0534V25.996C13.0931 25.4222 13.4407 24.9057 14.0201 24.7335L16.3375 24.1023L16.9168 23.9301L18.4232 23.5284L19.9295 23.0693C20.1612 23.758 20.7406 24.3318 21.4358 24.504C21.4358 24.504 21.4358 24.504 23.2897 25.0205C20.4509 25.8239 17.4962 26.6846 17.4962 26.6846C16.5113 27.029 15.874 27.9471 15.874 28.9227V34.4317V38.9652H13.0352Z" fill="#38294B"/>
        <path d="M21.4934 29.4966C20.4506 29.7835 19.8133 30.7017 19.8133 31.792V38.9652H16.9165V34.4318V28.9227C16.9165 28.2915 17.3221 27.775 17.9014 27.6029L26.8814 25.0779C28.7353 24.5614 28.7353 24.5614 28.7353 24.5614C29.7782 24.2745 30.4155 23.3563 30.4155 22.266V15.0928H33.3122V25.1353C33.3122 25.5944 33.0805 25.9961 32.7329 26.283C32.617 26.3978 32.5011 26.4552 32.3273 26.5125L23.3473 29.0375C21.4934 29.4966 21.4934 29.4966 21.4934 29.4966Z" fill="#38294B"/>
        <path d="M28.7358 29.4964C28.7358 29.4964 28.7358 29.4964 26.8818 28.9799C29.7207 28.1765 32.6174 27.3157 32.6754 27.3157C33.6603 26.9714 34.2976 26.0532 34.2976 25.0777V15.0352H37.1943V27.947V28.0043C37.1364 28.5782 36.7888 29.0947 36.2094 29.2668L33.892 29.8981L33.3127 30.0702L31.8063 30.4719L30.2421 30.9884C30.0103 30.2998 29.431 29.7259 28.7358 29.4964Z" fill="#38294B"/>
        <path d="M33.3126 38.9654H30.4158L30.3579 31.9069L33.3126 31.1035V38.9654Z" fill="#38294B"/>
        <path d="M34.2393 38.9651V30.8164L36.4408 30.1851C36.6146 30.1277 36.7884 30.0704 36.9043 29.9556C36.9622 29.8982 37.0202 29.8982 37.0781 29.8408V38.9078H34.2393V38.9651Z" fill="#38294B"/>
        <path d="M135.743 22.2668C136.032 22.2668 136.322 22.2668 136.612 22.2668C137.017 22.2668 137.423 22.2668 137.828 22.2668C138.06 22.2668 138.118 22.2094 138.118 21.9799C138.118 19.3975 138.118 16.8152 138.118 14.2328C138.118 14.1754 138.118 14.118 138.118 14.0033C138.118 13.7163 138.234 13.6016 138.524 13.6016C139.045 13.6016 139.508 13.6016 140.03 13.6016C140.32 13.6016 140.435 13.7737 140.435 14.0606C140.435 15.0936 140.435 16.1839 140.435 17.2169C140.435 18.9958 140.435 20.7748 140.435 22.5537C140.435 22.7259 140.493 22.8981 140.609 23.0128C140.957 23.3571 141.304 23.7588 141.652 24.1032C141.884 24.3327 141.884 24.5622 141.652 24.7918C141.362 25.0787 141.015 25.3656 140.725 25.6526C140.493 25.8821 140.32 25.8821 140.088 25.6526C139.682 25.2509 139.335 24.8492 138.929 24.4475C138.813 24.3327 138.697 24.2753 138.524 24.2753C135.511 24.2753 132.498 24.2753 129.544 24.2753C129.428 24.2753 129.37 24.2753 129.254 24.2753C129.08 24.2753 128.964 24.1605 128.906 23.931C128.906 23.8736 128.906 23.8162 128.906 23.7015C128.906 20.5452 128.906 17.3316 128.906 14.1754C128.906 13.6589 129.022 13.6016 129.486 13.6016C129.891 13.6016 130.297 13.6016 130.644 13.6016C131.05 13.6016 131.166 13.7163 131.166 14.118C131.166 16.7004 131.166 19.3401 131.166 21.9225C131.166 22.2094 131.166 22.2094 131.455 22.2094C132.035 22.2094 132.614 22.2094 133.193 22.2094C133.483 22.2094 133.483 22.2094 133.483 21.9225C133.483 19.3401 133.483 16.7578 133.483 14.2328C133.483 14.1754 133.483 14.0606 133.483 14.0033C133.483 13.7737 133.599 13.6589 133.831 13.6589C134.352 13.6589 134.874 13.6589 135.395 13.6589C135.627 13.6589 135.743 13.8311 135.743 14.0606C135.743 14.118 135.743 14.1754 135.743 14.2902C135.743 16.8726 135.743 19.4549 135.743 21.9799C135.743 22.0947 135.743 22.152 135.743 22.2668Z" fill="white"/>
        <path d="M150.748 17.6751C150.69 17.7325 150.632 17.7899 150.574 17.8473C149.937 19.0524 149.357 20.2575 148.72 21.4626C148.314 22.266 147.909 23.012 147.561 23.8154C147.388 24.1597 147.156 24.3319 146.75 24.2745C146.229 24.2745 145.649 24.2745 145.128 24.2745C144.78 24.2745 144.665 24.1597 144.665 23.8154C144.665 20.5444 144.665 17.3308 144.665 14.0598C144.665 13.7729 144.78 13.6007 145.128 13.6007C145.592 13.6007 146.055 13.6007 146.461 13.6007C146.808 13.6007 146.982 13.7155 146.982 14.1172C146.982 16.0683 146.982 18.0194 146.982 19.9705C146.982 20.0279 146.982 20.0853 146.982 20.1427C146.982 20.2001 147.04 20.2575 147.04 20.2575C147.098 20.2575 147.098 20.2575 147.156 20.2001C147.214 20.2001 147.214 20.1427 147.214 20.0853C148.199 18.0768 149.241 16.0683 150.226 14.0598C150.4 13.7155 150.632 13.5433 151.037 13.6007C151.559 13.6007 152.08 13.6007 152.602 13.6007C153.007 13.6007 153.181 13.7155 153.181 14.1746C153.181 17.3882 153.181 20.5444 153.181 23.758C153.181 24.2171 153.065 24.3319 152.602 24.3319C152.196 24.3319 151.791 24.3319 151.385 24.3319C150.98 24.3319 150.864 24.2171 150.864 23.8154C150.864 21.8643 150.864 19.9132 150.864 17.962C150.864 17.9047 150.864 17.7899 150.864 17.7325C150.806 17.6751 150.748 17.6751 150.748 17.6751Z" fill="white"/>
        <path d="M104.11 18.9956C104.11 17.9053 104.11 16.8149 104.11 15.7246C104.11 15.3229 104.226 14.9212 104.342 14.5769C104.573 14.003 105.095 13.7161 105.732 13.6013C105.964 13.5439 106.253 13.5439 106.485 13.5439C107.818 13.5439 109.092 13.5439 110.425 13.5439C110.772 13.5439 111.12 13.6013 111.41 13.7161C112.163 13.9456 112.511 14.5769 112.626 15.3229C112.684 15.6098 112.684 15.9541 112.684 16.2411C112.684 18.1348 112.684 20.0859 112.684 21.9796C112.684 22.4961 112.626 23.0126 112.395 23.4717C112.105 23.9882 111.699 24.2751 111.12 24.3899C110.772 24.4472 110.483 24.4472 110.135 24.4472C108.803 24.4472 107.47 24.4472 106.138 24.4472C104.921 24.3899 104.226 23.7012 104.168 22.5535C104.168 22.324 104.168 22.1518 104.168 21.9223C104.11 20.9467 104.11 19.9711 104.11 18.9956ZM106.369 18.9382C106.369 19.799 106.369 20.6598 106.369 21.5206C106.369 22.0944 106.659 22.3814 107.238 22.3814C107.992 22.3814 108.745 22.3814 109.498 22.3814C110.077 22.3814 110.309 22.0944 110.309 21.5779C110.309 19.8564 110.309 18.1348 110.309 16.3558C110.309 15.8394 110.019 15.5524 109.44 15.5524C108.687 15.5524 107.934 15.5524 107.238 15.5524C106.659 15.5524 106.369 15.8394 106.369 16.4132C106.369 17.274 106.369 18.1348 106.369 18.9382Z" fill="white"/>
        <path d="M117.841 20.8322C117.319 20.66 116.972 20.3731 116.798 19.8566C116.682 19.5123 116.566 19.168 116.566 18.8237C116.508 17.7907 116.508 16.7578 116.566 15.7248C116.566 15.3805 116.624 15.0362 116.798 14.7493C117.088 14.0606 117.667 13.7737 118.362 13.6589C118.652 13.6016 118.942 13.6016 119.231 13.6016C120.854 13.6016 122.476 13.6016 124.04 13.6016C124.561 13.6016 124.619 13.7163 124.619 14.1754C124.619 17.3316 124.619 20.5452 124.619 23.7015C124.619 24.1605 124.503 24.2753 124.04 24.2753C123.634 24.2753 123.229 24.2753 122.823 24.2753C122.476 24.2753 122.302 24.1605 122.302 23.7588C122.302 22.8981 122.302 22.0373 122.302 21.1191C122.302 20.9469 122.244 20.8896 122.07 20.8896C121.491 20.8896 120.911 20.8896 120.332 20.8896C120.216 20.8896 120.1 20.9469 120.042 21.0617C119.637 21.9799 119.173 22.8407 118.768 23.7588C118.594 24.1032 118.42 24.2753 118.015 24.2179C117.551 24.2179 117.088 24.2179 116.624 24.2179C116.219 24.2179 116.161 24.0458 116.335 23.7015C116.798 22.7259 117.262 21.7503 117.783 20.7748C117.783 20.8896 117.783 20.8896 117.841 20.8322ZM122.302 17.2743C122.302 16.8152 122.302 16.3561 122.302 15.897C122.302 15.7822 122.244 15.6674 122.128 15.6674C121.317 15.6674 120.506 15.6674 119.695 15.6674C119.173 15.6674 118.884 15.9544 118.884 16.4709C118.884 16.9873 118.884 17.5038 118.884 18.0203C118.884 18.5941 119.173 18.8237 119.695 18.8237C120.506 18.8237 121.317 18.8237 122.128 18.8237C122.244 18.8237 122.302 18.7663 122.302 18.6515C122.302 18.2498 122.302 17.7907 122.302 17.2743Z" fill="white"/>
        <path d="M66.6258 18.9951C66.6258 20.6019 66.6258 22.2087 66.6258 23.7581C66.6258 24.2172 66.5099 24.2746 66.0464 24.332C65.6409 24.332 65.2353 24.332 64.8298 24.332C64.4242 24.332 64.3083 24.2172 64.3083 23.8155C64.3083 22.6678 64.3083 21.5201 64.3083 20.3723C64.3083 20.0854 64.3083 20.0854 64.0187 20.0854C62.9758 20.0854 61.9909 20.0854 60.9481 20.0854C60.7743 20.0854 60.7163 20.1428 60.7163 20.315C60.7163 21.4627 60.7163 22.6104 60.7163 23.7581C60.7163 23.8729 60.7163 23.9876 60.6584 24.1024C60.6005 24.2746 60.4846 24.332 60.3108 24.332C59.7894 24.332 59.3259 24.332 58.8045 24.332C58.5727 24.332 58.4569 24.2172 58.3989 23.9876C58.3989 23.9303 58.3989 23.8729 58.3989 23.7581C58.3989 20.6019 58.3989 17.4457 58.3989 14.2894C58.3989 14.2321 58.3989 14.1747 58.3989 14.0599C58.3989 13.773 58.5148 13.6582 58.8045 13.6582C59.3259 13.6582 59.7894 13.6582 60.3108 13.6582C60.6005 13.6582 60.7163 13.8304 60.7163 14.1747C60.7163 15.3798 60.7163 16.5849 60.7163 17.7326C60.7163 17.9047 60.7743 17.9621 60.9481 17.9621C61.9909 17.9621 63.0338 17.9621 64.0766 17.9621C64.3083 17.9621 64.3083 17.9047 64.3083 17.7326C64.3083 16.5275 64.3083 15.3798 64.3083 14.1747C64.3083 13.773 64.4242 13.6582 64.8298 13.6582C65.2353 13.6582 65.6988 13.6582 66.1043 13.6582C66.452 13.6582 66.5678 13.773 66.5678 14.1173C66.6258 15.7241 66.6258 17.3883 66.6258 18.9951Z" fill="white"/>
        <path d="M81.7469 18.9954C81.7469 17.905 81.7469 16.8147 81.7469 15.667C81.7469 15.2079 81.8628 14.7488 82.0945 14.3471C82.3842 13.888 82.8477 13.6585 83.3691 13.5437C83.6008 13.4863 83.8905 13.4863 84.1223 13.4863C85.3389 13.4863 86.6135 13.4863 87.8301 13.4863C88.3515 13.4863 88.873 13.6011 89.3364 13.888C89.8579 14.2897 90.0896 14.8636 90.1475 15.4374C90.2055 15.8965 90.1475 16.3556 90.1475 16.8147C90.1475 17.0442 90.0317 17.2164 89.742 17.2164C89.2206 17.2164 88.7571 17.2164 88.2357 17.2164C87.946 17.2164 87.8881 17.1016 87.8301 16.8147C87.8301 16.5852 87.8301 16.413 87.8301 16.1835C87.7722 15.7818 87.5404 15.5522 87.1349 15.5522C86.3817 15.5522 85.5706 15.5522 84.8175 15.5522C84.354 15.5522 84.0643 15.8965 84.0643 16.3556C84.0643 17.6755 84.0643 18.9954 84.0643 20.2578C84.0643 20.6595 84.0643 21.1186 84.0643 21.5203C84.0643 22.0942 84.354 22.3811 84.9334 22.3811C85.6286 22.3811 86.3238 22.3811 87.019 22.3811C87.5984 22.3811 87.8301 22.0942 87.8301 21.5777C87.8301 21.4056 87.8301 21.2334 87.8301 21.0612C87.8301 20.8317 87.946 20.7169 88.1777 20.7169C88.6991 20.7169 89.2206 20.7169 89.742 20.7169C89.9158 20.7169 90.0896 20.8317 90.0896 21.0039C90.0896 21.6925 90.2055 22.3811 89.9737 23.0124C89.742 23.9305 89.1047 24.3322 88.1777 24.3896C87.3666 24.447 86.5555 24.3896 85.7444 24.447C85.1072 24.447 84.4699 24.447 83.8905 24.447C83.3691 24.447 82.9056 24.3322 82.4421 23.9879C81.9786 23.6436 81.8048 23.1845 81.7469 22.6107C81.689 21.5777 81.689 20.6022 81.689 19.5692C81.7469 19.3971 81.7469 19.2249 81.7469 18.9954Z" fill="white"/>
        <path d="M159.728 19.914C159.728 20.0288 159.728 20.0862 159.728 20.1435C159.728 20.7748 159.728 21.406 159.728 22.0373C159.728 22.2094 159.786 22.2668 159.96 22.2668C161.466 22.2668 162.972 22.2668 164.479 22.2668C164.884 22.2668 165 22.3816 165 22.7833C165 23.1276 165 23.4719 165 23.8162C165 24.1605 164.884 24.2753 164.537 24.2753C162.335 24.2753 160.076 24.2753 157.874 24.2753C157.527 24.2753 157.411 24.1605 157.411 23.8162C157.411 20.5452 157.411 17.3316 157.411 14.0606C157.411 13.7163 157.527 13.6016 157.874 13.6016C160.018 13.6016 162.219 13.6016 164.363 13.6016C164.653 13.6016 164.826 13.7163 164.826 14.0606C164.826 14.4623 164.826 14.8067 164.826 15.2084C164.826 15.5527 164.71 15.6674 164.363 15.6674C163.552 15.6674 162.741 15.6674 161.93 15.6674C161.292 15.6674 160.597 15.6674 159.96 15.6674C159.786 15.6674 159.728 15.7248 159.728 15.897C159.728 16.4709 159.728 16.9873 159.728 17.5612C159.728 17.7333 159.786 17.7907 159.96 17.7907C161.061 17.7907 162.103 17.7907 163.204 17.7907C163.61 17.7907 163.726 17.9055 163.726 18.3072C163.726 18.6515 163.726 18.9958 163.726 19.3401C163.726 19.7418 163.61 19.8566 163.204 19.8566C162.103 19.8566 161.061 19.8566 159.96 19.8566C159.902 19.914 159.786 19.914 159.728 19.914Z" fill="white"/>
        <path d="M74.447 13.6585C74.7946 13.6585 75.0842 13.6585 75.4319 13.6585C75.7215 13.6585 75.8374 13.8306 75.9533 14.0602C76.4168 15.4374 76.8802 16.8721 77.3437 18.2493C77.9231 20.0283 78.5024 21.7499 79.0818 23.5288C79.1397 23.6436 79.1977 23.8158 79.1977 23.9305C79.2556 24.1601 79.1397 24.2748 78.908 24.2748C78.3286 24.2748 77.8072 24.2748 77.2279 24.2748C76.9382 24.2748 76.7644 24.1027 76.7064 23.8158C76.5326 23.2993 76.4168 22.7254 76.243 22.209C76.243 22.1516 76.1271 22.0368 76.0691 22.0368C75.0263 22.0368 74.0414 22.0368 72.9986 22.0368C72.8827 22.0368 72.8248 22.0942 72.7668 22.209C72.593 22.7254 72.4192 23.2993 72.3033 23.8158C72.2454 24.1027 72.0716 24.2175 71.7819 24.2175C71.2026 24.2175 70.6812 24.2175 70.1018 24.2175C69.8701 24.2175 69.7542 24.1027 69.8121 23.8158C70.2756 22.4385 70.6812 21.0612 71.1446 19.684C71.7819 17.7903 72.3613 15.8965 72.9986 14.0028C73.1144 13.6585 73.2882 13.5437 73.6359 13.4863C73.7517 13.4863 73.9255 13.4863 74.0414 13.4863C74.1573 13.6585 74.2731 13.6585 74.447 13.6585ZM75.4898 20.0283C75.4898 19.9709 75.4898 19.9135 75.4898 19.8561C75.2001 18.8806 74.9104 17.905 74.6208 16.9295C74.6208 16.8721 74.5049 16.8147 74.5049 16.7573C74.447 16.8147 74.389 16.8721 74.389 16.9295C74.1573 17.6181 73.9835 18.3067 73.7517 18.9954C73.6359 19.3397 73.5779 19.684 73.4621 20.0283C74.0993 20.0283 74.7366 20.0283 75.4898 20.0283Z" fill="white"/>
        <path d="M98.1426 19.9133C98.1426 21.2331 98.1426 22.4956 98.1426 23.8155C98.1426 24.2172 98.0267 24.332 97.6212 24.332C97.2156 24.332 96.7521 24.332 96.3466 24.332C95.941 24.332 95.8252 24.2172 95.8252 23.8155C95.8252 23.2416 95.8252 22.6104 95.8252 22.0365C95.8252 20.028 95.8252 18.0195 95.8252 16.011C95.8252 15.7241 95.8252 15.7241 95.5355 15.7241C94.8403 15.7241 94.145 15.7241 93.5077 15.7241C93.1022 15.7241 92.9863 15.6093 92.9863 15.2076C92.9863 14.8633 92.9863 14.519 92.9863 14.2321C92.9863 13.8304 93.1022 13.6582 93.5657 13.6582C95.1879 13.6582 96.7521 13.6582 98.3743 13.6582C99.0695 13.6582 99.8227 13.6582 100.518 13.6582C100.923 13.6582 101.039 13.773 101.039 14.1747C101.039 14.519 101.039 14.9207 101.039 15.265C101.039 15.6093 100.923 15.7241 100.576 15.7241C100.054 15.7241 99.533 15.7241 99.0116 15.7241C98.8378 15.7241 98.606 15.7241 98.4322 15.7241C98.2584 15.7241 98.2005 15.7815 98.2005 15.9536C98.2005 16.9866 98.2005 18.0769 98.2005 19.1098C98.1426 19.3394 98.1426 19.6263 98.1426 19.9133Z" fill="white"/>
        <path d="M70.7387 35.0063C70.7387 33.8012 70.7387 32.5961 70.7387 31.391C70.7387 30.4155 71.376 29.7842 72.3609 29.6121C72.5927 29.5547 72.8823 29.5547 73.1141 29.5547C74.4466 29.5547 75.7212 29.5547 77.0537 29.5547C77.4013 29.5547 77.7489 29.6121 78.0386 29.7268C78.7918 29.9564 79.1394 30.5302 79.2552 31.2763C79.3132 31.4484 79.3132 31.678 79.3132 31.8501C79.3132 33.9734 79.3132 36.154 79.3132 38.2773C79.3132 38.679 79.1973 39.0807 79.0814 39.425C78.7918 40.1137 78.1545 40.4006 77.4592 40.458C77.0537 40.5154 76.5902 40.5154 76.1847 40.5154C75.026 40.5154 73.8673 40.5154 72.7665 40.458C72.0133 40.4006 71.376 40.0563 71.0284 39.3103C70.8546 38.9086 70.8546 38.4495 70.7967 37.9904C70.6808 37.0148 70.6808 35.9819 70.7387 35.0063ZM76.9378 35.0063C76.9378 34.1455 76.9378 33.2848 76.9378 32.424C76.9378 31.8501 76.6482 31.5632 76.0688 31.5632C75.3156 31.5632 74.5625 31.5632 73.8673 31.5632C73.2879 31.5632 72.9982 31.8501 72.9982 32.424C72.9982 34.1455 72.9982 35.8671 72.9982 37.5887C72.9982 38.1626 73.2879 38.4495 73.8673 38.4495C74.6204 38.4495 75.3156 38.4495 76.0688 38.4495C76.7061 38.4495 76.9378 38.1626 76.9378 37.5887C76.9378 36.7279 76.9378 35.8671 76.9378 35.0063Z" fill="white"/>
        <path d="M66.6256 35.0063C66.6256 36.6131 66.6256 38.2199 66.6256 39.7694C66.6256 40.2284 66.5097 40.3432 66.0462 40.3432C65.6407 40.3432 65.1772 40.3432 64.7716 40.3432C64.424 40.3432 64.3082 40.2284 64.3082 39.8841C64.3082 39.8267 64.3082 39.7694 64.3082 39.6546C64.3082 37.0722 64.3082 34.5473 64.3082 31.9649C64.3082 31.678 64.3082 31.678 64.0185 31.678C63.0336 31.678 61.9908 31.678 61.0059 31.678C60.7162 31.678 60.7162 31.678 60.7162 31.9649C60.7162 34.4899 60.7162 37.0722 60.7162 39.5972C60.7162 39.6546 60.7162 39.712 60.7162 39.7694C60.7162 40.1137 60.6003 40.2284 60.1948 40.2284C59.7892 40.2284 59.3837 40.2284 58.9202 40.2284C58.4567 40.2284 58.3408 40.1137 58.3408 39.6546C58.3408 38.966 58.3408 38.3347 58.3408 37.6461C58.3408 35.1211 58.3408 32.6535 58.3408 30.1285C58.3408 29.6121 58.4567 29.5547 58.9202 29.5547C61.2955 29.5547 63.6709 29.5547 66.0462 29.5547C66.4518 29.5547 66.5676 29.6695 66.5676 30.0712C66.6256 31.7927 66.6256 33.3995 66.6256 35.0063Z" fill="white"/>
        <path d="M91.2482 35.0061C91.2482 36.6129 91.2482 38.1623 91.2482 39.7691C91.2482 40.2282 91.1323 40.3429 90.6688 40.3429C90.2633 40.3429 89.8577 40.3429 89.5101 40.3429C89.1046 40.3429 88.9887 40.2282 88.9887 39.8265C88.9887 37.2441 88.9887 34.6617 88.9887 32.0794C88.9887 31.6777 89.0466 31.7351 88.6411 31.7351C88.1197 31.7351 87.5403 31.7351 87.0189 31.7351C86.8451 31.7351 86.8451 31.7925 86.7872 31.9646C86.6134 32.8828 86.4396 33.8583 86.3237 34.7765C86.2078 35.5799 86.034 36.3833 85.9181 37.1867C85.8023 37.8753 85.7443 38.564 85.3967 39.1952C85.0491 39.9986 84.4118 40.4003 83.6007 40.4577C83.2531 40.5151 82.9634 40.5151 82.6158 40.5151C82.2682 40.5151 82.1523 40.4003 82.1523 40.056C82.1523 39.6543 82.1523 39.2526 82.1523 38.9083C82.1523 38.6214 82.2682 38.5066 82.5579 38.5066C83.2531 38.4492 83.4849 38.277 83.6007 37.5884C83.8325 36.2685 84.0642 35.0061 84.238 33.6862C84.4118 32.768 84.5856 31.7925 84.7015 30.8743C84.7594 30.7021 84.7594 30.53 84.8174 30.3004C84.8753 29.8987 85.0491 29.7266 85.4547 29.7266C86.2658 29.7266 87.0769 29.7266 87.83 29.7266C88.757 29.7266 89.7419 29.7266 90.6688 29.7266C91.1323 29.7266 91.2482 29.8413 91.2482 30.3004C91.2482 31.7925 91.2482 33.3993 91.2482 35.0061Z" fill="white"/>
        <path d="M95.4775 35.0056C95.4775 33.3988 95.4775 31.792 95.4775 30.1852C95.4775 29.7261 95.5934 29.6113 96.0569 29.6113C96.4624 29.6113 96.868 29.6113 97.2735 29.6113C97.6791 29.6113 97.795 29.7261 97.795 30.1278C97.795 30.9886 97.795 31.792 97.795 32.6528C97.795 32.8249 97.8529 32.8823 98.0267 32.8823C98.9537 32.8823 99.8806 32.8823 100.808 32.8823C102.082 32.9397 102.777 33.6857 102.835 34.8908C102.893 35.9811 102.835 37.0715 102.835 38.1618C102.835 38.793 102.662 39.3669 102.14 39.7686C101.735 40.1129 101.271 40.2277 100.75 40.2277C99.1275 40.2277 97.5053 40.2277 95.8831 40.2277C95.5934 40.2277 95.4775 40.1129 95.4775 39.7112C95.4775 38.2766 95.4775 36.8419 95.4775 35.4073C95.4775 35.3499 95.4775 35.1777 95.4775 35.0056ZM97.795 36.6124C97.795 37.0715 97.795 37.5879 97.795 38.047C97.795 38.2192 97.8529 38.2766 98.0267 38.2766C98.606 38.2766 99.1854 38.2766 99.7647 38.2766C100.286 38.2766 100.576 37.9896 100.576 37.4732C100.576 36.8993 100.576 36.3828 100.576 35.809C100.576 35.2925 100.286 35.0056 99.7647 35.0056C99.1854 35.0056 98.606 35.0056 98.0267 35.0056C97.8529 35.0056 97.795 35.063 97.795 35.2351C97.795 35.6942 97.795 36.1533 97.795 36.6124Z" fill="white"/>
        <path d="M106.311 35.0056C106.311 36.6124 106.311 38.2192 106.311 39.7686C106.311 40.2277 106.195 40.2851 105.79 40.2851C105.384 40.2851 104.921 40.2851 104.515 40.2851C104.168 40.2851 104.052 40.1703 104.052 39.826C104.052 36.555 104.052 33.3414 104.052 30.0704C104.052 29.7261 104.168 29.6113 104.515 29.6113C104.921 29.6113 105.384 29.6113 105.79 29.6113C106.195 29.6113 106.311 29.7261 106.311 30.1278C106.311 31.792 106.311 33.3988 106.311 35.0056Z" fill="white"/>
    </g>
    <defs>
        <clipPath id="clip0">
            <rect width="165" height="54" fill="white"/>
        </clipPath>
    </defs>
</svg>
