<svg width="30" height="26" viewBox="0 0 30 26" fill="none" xmlns="http://www.w3.org/2000/svg">
    <path d="M9.60211 11.8275C8.86323 11.6147 8.12434 11.5068 7.4056 11.5068C6.2957 11.5068 5.36958 11.7604 4.65146 12.071C5.34378 9.53652 7.00689 5.16328 10.3199 4.67079C10.6267 4.62516 10.8782 4.4033 10.9619 4.10466L11.686 1.51477C11.747 1.29574 11.7108 1.0613 11.5859 0.871227C11.461 0.681155 11.2602 0.554334 11.0352 0.523495C10.7907 0.490138 10.5415 0.473145 10.2944 0.473145C6.31773 0.473145 2.37943 4.6239 0.71757 10.5671C-0.257958 14.0539 -0.544008 19.296 1.85894 22.5955C3.20359 24.4418 5.16535 25.4277 7.68976 25.5262C7.70015 25.5265 7.71022 25.5269 7.7206 25.5269C10.8354 25.5269 13.5974 23.4291 14.4376 20.426C14.9395 18.6307 14.7126 16.748 13.7981 15.1232C12.8934 13.5167 11.4034 12.3458 9.60211 11.8275Z" fill="#F6F3FB"/>
    <path d="M29.0996 15.1235C28.1949 13.5167 26.7049 12.3458 24.9036 11.8275C24.1647 11.6147 23.4258 11.5068 22.7074 11.5068C21.5975 11.5068 20.6711 11.7604 19.9529 12.071C20.6452 9.53652 22.3084 5.16328 25.6217 4.67079C25.9285 4.62516 26.1796 4.4033 26.2637 4.10466L26.9878 1.51477C27.0488 1.29574 27.0126 1.0613 26.8877 0.871227C26.7631 0.681155 26.5623 0.554334 26.337 0.523495C26.0928 0.490138 25.8436 0.473145 25.5962 0.473145C21.6195 0.473145 17.6812 4.6239 16.019 10.5671C15.0438 14.0539 14.7578 19.296 17.161 22.5961C18.5054 24.4421 20.4675 25.4284 22.9915 25.5265C23.0019 25.5269 23.012 25.5272 23.0227 25.5272C26.1372 25.5272 28.8995 23.4294 29.7397 20.4264C30.241 18.6311 30.0138 16.748 29.0996 15.1235Z" fill="#F6F3FB"/>
</svg>
