<svg xmlns="http://www.w3.org/2000/svg" display="none">
    <symbol id="arrow-right" viewBox="0 0 6 10">
        <path d="M0.394592 0.860552L4.53456 4.99952L0.394094 9.13849C0.19676 9.33583 0.19676 9.65504 0.394094 9.85237C0.591427 10.0492 0.911138 10.0492 1.10847 9.85237L5.60565 5.35669C5.80298 5.15986 5.80298 4.84014 5.60565 4.64331L1.10851 0.147628C0.911179 -0.0492068 0.59097 -0.0492067 0.393636 0.147628C0.197258 0.343965 0.197258 0.663717 0.394592 0.860552Z"/>
    </symbol>

    <symbol id="arrow-top" viewBox="0 0 14 8">
        <path d="M6.61586 0.386377L0.151218 6.85102C-0.0554733 7.06504 -0.049539 7.40607 0.164476 7.61277C0.373251 7.81441 0.704216 7.81441 0.912959 7.61277L6.99673 1.52899L13.0805 7.61277C13.2908 7.82309 13.6319 7.82309 13.8422 7.61277C14.0526 7.40238 14.0526 7.06138 13.8422 6.85103L7.3776 0.386377C7.16721 0.176055 6.82621 0.176055 6.61586 0.386377Z"/>
    </symbol>

    <symbol id="vk" viewBox="0 0 30 30">
        <path d="M15 0C6.71601 0 0 6.7157 0 15C0 23.2843 6.71601 30 15 30C23.284 30 30 23.2843 30 15C30 6.7157 23.284 0 15 0ZM22.6088 16.6223C23.3079 17.3052 24.0476 17.9478 24.6752 18.7013C24.9532 19.0346 25.2153 19.3792 25.4148 19.7669C25.6996 20.3196 25.4425 20.9257 24.9477 20.9586L21.8747 20.958C21.081 21.0236 20.4494 20.7035 19.9169 20.1609C19.4919 19.7285 19.0975 19.2666 18.6881 18.8194C18.5208 18.6359 18.3447 18.4631 18.1347 18.3272C17.7158 18.0546 17.3518 18.1381 17.1118 18.5758C16.8672 19.0211 16.8114 19.5146 16.788 20.0102C16.7546 20.7348 16.5361 20.9242 15.809 20.9583C14.2554 21.031 12.7814 20.7953 11.4114 20.0121C10.2028 19.3212 9.26731 18.3462 8.45217 17.2423C6.86486 15.0902 5.64921 12.7283 4.55693 10.2985C4.3111 9.7513 4.49095 9.45852 5.09463 9.44716C6.0976 9.42783 7.10056 9.43028 8.10353 9.44624C8.51171 9.45268 8.78179 9.68624 8.93862 10.0714C9.48061 11.4049 10.1451 12.6737 10.9777 13.8503C11.1996 14.1637 11.4261 14.4761 11.7486 14.6974C12.1047 14.9417 12.376 14.861 12.5438 14.4635C12.6513 14.2109 12.6976 13.9409 12.7209 13.6702C12.8007 12.743 12.8102 11.8162 12.6721 10.8927C12.5862 10.3148 12.2612 9.94159 11.6851 9.83233C11.3917 9.77678 11.4347 9.66813 11.5774 9.50056C11.8251 9.21084 12.0571 9.03161 12.5208 9.03161L15.9928 9.031C16.5401 9.13841 16.6628 9.38394 16.7371 9.93514L16.7402 13.7936C16.7337 14.0069 16.8473 14.6391 17.2303 14.7787C17.5372 14.88 17.7397 14.6339 17.9233 14.4396C18.7559 13.556 19.3492 12.5131 19.8804 11.4338C20.1149 10.9577 20.3171 10.4652 20.5136 9.97166C20.6596 9.60675 20.8868 9.42721 21.2986 9.43335L24.642 9.43734C24.7406 9.43734 24.8406 9.43826 24.9382 9.45514C25.5017 9.55151 25.6561 9.79396 25.4817 10.3436C25.2074 11.2073 24.6743 11.9266 24.1531 12.6479C23.5946 13.4201 22.9989 14.1652 22.4458 14.9408C21.9376 15.6497 21.9778 16.0066 22.6088 16.6223Z"/>
    </symbol>

    <symbol id="fb" viewBox="0 0 30 30">
        <path d="M30 15C30 6.71484 23.2852 0 15 0C6.71484 0 0 6.71484 0 15C0 23.2852 6.71484 30 15 30C15.0879 30 15.1758 30 15.2637 29.9941V18.3223H12.041V14.5664H15.2637V11.8008C15.2637 8.5957 17.2207 6.84961 20.0801 6.84961C21.4512 6.84961 22.6289 6.94922 22.9688 6.99609V10.3477H21C19.4473 10.3477 19.1426 11.0859 19.1426 12.1699V14.5605H22.8633L22.377 18.3164H19.1426V29.4199C25.4121 27.6211 30 21.8496 30 15Z"/>
    </symbol>

    <symbol id="instagram" viewBox="0 0 30 30">
        <path d="M21.7144 9.91991C21.5764 9.54591 21.3562 9.2074 21.0701 8.92953C20.7923 8.64343 20.454 8.42325 20.0797 8.28523C19.7762 8.16736 19.3203 8.02705 18.4805 7.98883C17.5721 7.9474 17.2997 7.93848 14.9999 7.93848C12.6999 7.93848 12.4275 7.94717 11.5193 7.9886C10.6796 8.02705 10.2234 8.16736 9.92014 8.28523C9.54591 8.42325 9.2074 8.64343 8.92976 8.92953C8.64366 9.2074 8.42348 9.54568 8.28523 9.91991C8.16736 10.2234 8.02705 10.6796 7.98883 11.5193C7.9474 12.4275 7.93848 12.6999 7.93848 14.9999C7.93848 17.2997 7.9474 17.5721 7.98883 18.4805C8.02705 19.3203 8.16736 19.7762 8.28523 20.0797C8.42348 20.454 8.64343 20.7923 8.92953 21.0701C9.2074 21.3562 9.54568 21.5764 9.91991 21.7144C10.2234 21.8325 10.6796 21.9728 11.5193 22.011C12.4275 22.0525 12.6997 22.0612 14.9997 22.0612C17.3 22.0612 17.5723 22.0525 18.4803 22.011C19.3201 21.9728 19.7762 21.8325 20.0797 21.7144C20.8309 21.4247 21.4247 20.8309 21.7144 20.0797C21.8323 19.7762 21.9726 19.3203 22.011 18.4805C22.0525 17.5721 22.0612 17.2997 22.0612 14.9999C22.0612 12.6999 22.0525 12.4275 22.011 11.5193C21.9728 10.6796 21.8325 10.2234 21.7144 9.91991ZM14.9999 19.4226C12.5571 19.4226 10.5768 17.4426 10.5768 14.9997C10.5768 12.5569 12.5571 10.5768 14.9999 10.5768C17.4426 10.5768 19.4229 12.5569 19.4229 14.9997C19.4229 17.4426 17.4426 19.4226 14.9999 19.4226ZM19.5977 11.4356C19.0269 11.4356 18.5641 10.9728 18.5641 10.4019C18.5641 9.8311 19.0269 9.3683 19.5977 9.3683C20.1685 9.3683 20.6313 9.8311 20.6313 10.4019C20.6311 10.9728 20.1685 11.4356 19.5977 11.4356Z"/>
        <path d="M15 0C6.717 0 0 6.717 0 15C0 23.283 6.717 30 15 30C23.283 30 30 23.283 30 15C30 6.717 23.283 0 15 0ZM23.5613 18.5511C23.5197 19.468 23.3739 20.094 23.161 20.6419C22.7135 21.7989 21.7989 22.7135 20.6419 23.161C20.0942 23.3739 19.468 23.5194 18.5513 23.5613C17.6328 23.6032 17.3394 23.6133 15.0002 23.6133C12.6608 23.6133 12.3676 23.6032 11.4489 23.5613C10.5322 23.5194 9.90601 23.3739 9.35829 23.161C8.78334 22.9447 8.26286 22.6057 7.83257 22.1674C7.39449 21.7374 7.05551 21.2167 6.83922 20.6419C6.62636 20.0942 6.48056 19.468 6.4389 18.5513C6.39656 17.6326 6.38672 17.3392 6.38672 15C6.38672 12.6608 6.39656 12.3674 6.43867 11.4489C6.48033 10.532 6.6259 9.90601 6.83876 9.35806C7.05505 8.78334 7.39426 8.26263 7.83257 7.83257C8.26263 7.39426 8.78334 7.05528 9.35806 6.83899C9.90601 6.62613 10.532 6.48056 11.4489 6.43867C12.3674 6.39679 12.6608 6.38672 15 6.38672C17.3392 6.38672 17.6326 6.39679 18.5511 6.4389C19.468 6.48056 20.094 6.62613 20.6419 6.83876C21.2167 7.05505 21.7374 7.39426 22.1677 7.83257C22.6057 8.26286 22.9449 8.78334 23.161 9.35806C23.3741 9.90601 23.5197 10.532 23.5616 11.4489C23.6034 12.3674 23.6133 12.6608 23.6133 15C23.6133 17.3392 23.6034 17.6326 23.5613 18.5511Z"/>
    </symbol>

    <symbol id="new" viewBox="0 0 24 24">
        <path d="M22.6362 10.225C22.2668 9.95267 21.8056 9.61248 21.745 9.38709C21.6793 9.13979 21.9141 8.59822 22.104 8.16309C22.4296 7.41595 22.7655 6.6417 22.392 5.99786C22.0153 5.3457 21.169 5.24969 20.352 5.15788C19.8855 5.10569 19.3054 5.04102 19.1321 4.86675C18.9579 4.69247 18.8932 4.11231 18.841 3.6469C18.7492 2.82986 18.6542 1.98465 18.001 1.60689C17.4334 1.27717 16.5923 1.56517 15.8358 1.89489C15.4184 2.07646 14.9822 2.24966 14.6108 2.25386C14.3854 2.19336 14.0463 1.73211 13.7728 1.36272C13.3033 0.724157 12.7701 0 12 0C11.2309 0 10.6967 0.724157 10.226 1.36277C9.95267 1.73318 9.61351 2.19443 9.29421 2.26433C9.01247 2.26433 8.58047 2.0765 8.16309 1.89494C7.4045 1.56522 6.56241 1.28035 5.99894 1.60694C5.34468 1.98469 5.24974 2.82991 5.15788 3.64798C5.10569 4.11442 5.04102 4.69355 4.86777 4.86782C4.6935 5.04102 4.11334 5.10676 3.64793 5.15793C2.82986 5.24974 1.98357 5.34575 1.60689 5.99791C1.23437 6.64175 1.57035 7.41497 1.89489 8.16314C2.08482 8.59827 2.32063 9.14086 2.25386 9.38817C2.19336 9.61356 1.73318 9.95375 1.36272 10.2261C0.724157 10.6957 0 11.2299 0 12C0 12.7701 0.724157 13.3043 1.36384 13.7749C1.73323 14.0473 2.19443 14.3875 2.25499 14.6129C2.32073 14.8602 2.08594 15.4017 1.89602 15.8369C1.57045 16.584 1.23447 17.3582 1.60802 18.0021C1.98469 18.6542 2.83099 18.7503 3.64803 18.8421C4.11446 18.8943 4.69462 18.9589 4.86787 19.1332C5.04215 19.3075 5.10681 19.8876 5.159 20.353C5.25081 21.1701 5.3458 22.0153 5.99899 22.3931C6.56349 22.7218 7.40455 22.4348 8.16314 22.1051C8.58052 21.9235 9.00939 21.7388 9.38817 21.7461C9.61356 21.8066 9.95267 22.2678 10.2261 22.6372C10.6967 23.2758 11.2299 24 12 24C12.7691 24 13.3033 23.2758 13.774 22.6372C14.0473 22.2668 14.3865 21.8056 14.7058 21.7346C14.9875 21.7346 15.4195 21.9225 15.8369 22.104C16.5976 22.4338 17.4376 22.7197 18.0011 22.3931C18.6553 22.0153 18.7503 21.1701 18.8421 20.352C18.8943 19.8856 18.959 19.3065 19.1322 19.1322C19.3065 18.9579 19.8867 18.8932 20.3521 18.841C21.1701 18.7492 22.0164 18.6542 22.3931 18.0011C22.7656 17.3572 22.4296 16.584 22.1051 15.8358C21.9152 15.4007 21.6804 14.8581 21.7461 14.6118C21.8066 14.3864 22.2668 14.0463 22.6373 13.7739C23.2759 13.3043 24 12.7701 24 12C24 11.2299 23.2758 10.6957 22.6362 10.225ZM9.3913 14.0869C9.3913 14.3113 9.2473 14.5106 9.03443 14.5816C8.98018 14.6003 8.92486 14.6087 8.86954 14.6087C8.70886 14.6087 8.55234 14.5336 8.45217 14.4L6.26087 11.4783V14.0869C6.26087 14.3749 6.02711 14.6087 5.73911 14.6087C5.45111 14.6087 5.21736 14.3749 5.21736 14.0869V9.91305C5.21736 9.68869 5.36136 9.48942 5.57422 9.41844C5.78607 9.34644 6.02188 9.42055 6.15649 9.60001L8.34779 12.5217V9.91305C8.34779 9.62505 8.58154 9.3913 8.86954 9.3913C9.15754 9.3913 9.3913 9.62505 9.3913 9.91305V14.0869ZM13.0435 11.4783C13.3315 11.4783 13.5652 11.712 13.5652 12C13.5652 12.288 13.3315 12.5217 13.0435 12.5217H11.4783V13.5652H13.0435C13.3315 13.5652 13.5652 13.7989 13.5652 14.0869C13.5652 14.3749 13.3315 14.6087 13.0435 14.6087H10.9565C10.6685 14.6087 10.4348 14.3749 10.4348 14.0869V9.91305C10.4348 9.62505 10.6685 9.3913 10.9565 9.3913H13.0435C13.3315 9.3913 13.5652 9.62505 13.5652 9.91305C13.5652 10.2011 13.3315 10.4348 13.0435 10.4348H11.4783V11.4783H13.0435ZM19.8104 10.0393L18.7669 14.2132C18.7106 14.4386 18.5124 14.5993 18.2807 14.6076C18.2734 14.6076 18.2661 14.6076 18.2598 14.6076C18.0355 14.6076 17.8362 14.4647 17.7642 14.2508L17.2174 12.6063L16.6696 14.2518C16.5965 14.471 16.416 14.6181 16.1541 14.6077C15.9224 14.5993 15.7242 14.4376 15.6678 14.2132L14.6244 10.0393C14.5555 9.75971 14.7245 9.4769 15.0042 9.407C15.2786 9.33603 15.5666 9.50615 15.6365 9.78681L16.2448 12.2223L16.7217 10.7917C16.8647 10.3659 17.57 10.3659 17.7119 10.7917L18.1888 12.2223L18.7971 9.78681C18.866 9.5061 19.1477 9.33705 19.4295 9.407C19.7113 9.47685 19.8804 9.76069 19.8104 10.0393Z"/>
    </symbol>

    <symbol id="pencil" viewBox="0 0 24 24">
        <path d="M6.9585 18.0332L17.5328 7.45893L20.0183 9.94448L9.44404 20.5187L6.9585 18.0332Z"/>
        <path d="M1.36036 19.8057L0 24L4.19442 22.6397L1.36036 19.8057Z"/>
        <path d="M3.479 14.5527L14.0533 3.97846L16.5388 6.46401L5.96455 17.0383L3.479 14.5527Z"/>
        <path d="M15.0483 2.98486L18.031 0.00220615L23.9963 5.96752L21.0136 8.95018L15.0483 2.98486Z"/>
        <path d="M2.67859 15.7407L1.84717 18.3043L5.69589 22.1529L8.25943 21.3215L2.67859 15.7407Z"/>
    </symbol>

    <symbol id="fire" viewBox="0 0 20 24">
        <path d="M13.3457 22.9806C14.2152 21.2416 15.2513 18.2805 13.8039 17.0036C12.4696 17.204 11.3907 17.2052 10.5129 17.0081C8.30244 16.5118 7.60275 14.7605 8.21133 12.5178C5.2373 15.2356 5.11174 19.243 6.21425 23.1019C6.39334 23.7287 5.69168 24.2422 5.14835 23.88C4.96331 23.7566 0.617188 20.807 0.617188 16.2649C0.617188 8.82375 9.05335 8.5036 9.05335 0.704831C9.05335 0.109097 9.7514 -0.216961 10.2082 0.166229C13.5793 2.99408 19.7135 9.7918 19.3693 16.0438C19.1986 19.1433 17.5147 21.7797 14.3644 23.88C13.7685 24.2771 13.0244 23.623 13.3457 22.9806Z"/>
    </symbol>

    <symbol id="sale" viewBox="0 0 18 24">
        <path d="M9.1371 16.5304C8.84753 16.82 8.84753 17.2961 9.1371 17.5856C9.42667 17.8752 9.90274 17.8752 10.1923 17.5856C10.4819 17.2961 10.4819 16.82 10.1923 16.5304C9.90274 16.236 9.42667 16.236 9.1371 16.5304Z"/>
        <path d="M5.44133 13.4921C5.15176 13.2025 4.67569 13.2025 4.38612 13.4921C4.09655 13.7817 4.09655 14.2577 4.38612 14.5473C4.67569 14.8369 5.15176 14.8369 5.44133 14.5473C5.7309 14.2577 5.7309 13.7866 5.44133 13.4921Z"/>
        <path d="M17.3431 1.52147C17.1125 0.961963 16.4057 0.0196319 14.256 0C14.2315 0 14.2119 0 14.1873 0C12.8671 0 11.2965 0.348466 9.75051 0.986503C9.46585 1.10429 9.191 1.22699 8.92597 1.35951L8.91124 1.34479C8.02781 0.48589 6.61922 0.48589 5.73578 1.34479L1.40695 5.55092C0.832715 6.10552 0.508789 6.87117 0.508789 7.67117V21.919C0.508789 23.0675 1.4413 24 2.58977 24H12.0622C13.2106 24 14.1431 23.0675 14.1431 21.919V7.67117C14.1431 7.2638 14.0597 6.86135 13.8977 6.49816C14.8155 5.98282 15.6155 5.39387 16.229 4.77546C17.7309 3.24908 17.5738 2.08098 17.3431 1.52147ZM3.11002 14.0221C3.11002 13.0307 3.91983 12.2209 4.91124 12.2209C5.90265 12.2209 6.71247 13.0307 6.71247 14.0221C6.71247 15.0135 5.90265 15.8233 4.91124 15.8233C3.91983 15.8233 3.11492 15.0184 3.11002 14.0221ZM4.6413 18.7337C4.4548 18.5767 4.43026 18.3018 4.58241 18.1153L9.3137 12.4172C9.47075 12.2307 9.7456 12.2061 9.9321 12.3583C10.1186 12.5153 10.1431 12.7902 9.991 12.9767L5.25971 18.6748C5.10265 18.8613 4.82781 18.8859 4.6413 18.7337ZM9.66707 18.8613C8.67566 18.8613 7.86584 18.0515 7.86584 17.0601C7.86584 16.0687 8.67566 15.2589 9.66707 15.2589C10.6585 15.2589 11.4683 16.0687 11.4683 17.0601C11.4683 18.0515 10.6585 18.8613 9.66707 18.8613ZM11.6646 5.62945C10.7616 6.00245 9.83394 6.26748 8.98977 6.39509C8.98977 6.43436 8.99468 6.46871 8.99468 6.50798C8.99468 7.46012 8.22413 8.23067 7.27198 8.23067C6.31983 8.23067 5.54928 7.46012 5.54928 6.50798C5.54928 5.55583 6.31983 4.78528 7.27198 4.78528C7.84131 4.78528 8.34192 5.06012 8.65603 5.48221C9.45603 5.34479 10.3198 5.09448 11.1689 4.74601C11.4683 4.62331 11.7481 4.49571 12.0131 4.36319L10.2757 2.66994C10.3247 2.65031 10.3738 2.63067 10.4229 2.60613C11.7431 2.06135 13.1125 1.75215 14.1922 1.75215C14.207 1.75215 14.2266 1.75215 14.2413 1.75215C15.2769 1.76196 15.6646 2.04172 15.7235 2.18896C15.9051 2.64049 14.7517 4.35828 11.6646 5.62945Z"/>
    </symbol>

    <symbol id="advantages-product1" viewBox="0 0 60 60">
        <path d="M58.5446 1.41064H1.41016V58.5451H58.5446V1.41064Z" stroke="#2B172E" stroke-width="2.00003"
              stroke-linecap="round" stroke-linejoin="round"/>
        <path fill-rule="evenodd" clip-rule="evenodd"
              d="M48.7143 5.24609C51.8003 5.24609 54.3573 7.75895 54.3573 10.889C54.3573 14.0191 51.8003 16.5319 48.7143 16.5319C45.5843 16.5319 43.0273 14.0191 43.0273 10.889C43.0273 7.75895 45.5843 5.24609 48.7143 5.24609ZM48.8025 11.1094C50.6982 11.1094 52.3734 11.6825 52.1971 12.6524C51.7121 14.2395 50.3896 15.1212 48.8025 15.1212C47.2154 15.1212 45.8929 14.2395 45.3639 12.6524C45.2316 11.6825 46.9068 11.1094 48.8025 11.1094ZM48.7143 6.87725C49.6401 6.87725 50.3896 7.67078 50.3896 8.59657C50.3896 9.52236 49.6401 10.3159 48.7143 10.3159C47.7445 10.3159 46.995 9.52236 46.995 8.59657C46.995 7.67078 47.7445 6.87725 48.7143 6.87725Z"
              fill="#2B172E"/>
        <path d="M41.4996 46.8899H43.4289V48.3321H41.4996V51.5604H39.7231V48.3321H33.3906V47.2911L39.618 37.6539H41.4996V46.8899ZM35.3964 46.8899H39.7231V40.0704L39.5129 40.4524L35.3964 46.8899Z"
              fill="#2B172E"/>
        <path d="M47.8511 43.7476H49.1787C50.0129 43.7348 50.6687 43.5152 51.1463 43.0885C51.6238 42.6619 51.8626 42.0857 51.8626 41.3598C51.8626 39.7297 51.0508 38.9147 49.4271 38.9147C48.663 38.9147 48.0517 39.1343 47.5932 39.5737C47.1411 40.0067 46.9151 40.5829 46.9151 41.3025H45.1481C45.1481 40.2009 45.5493 39.2872 46.3516 38.5613C47.1602 37.829 48.1854 37.4629 49.4271 37.4629C50.7388 37.4629 51.7671 37.8099 52.5121 38.504C53.2571 39.198 53.6296 40.1627 53.6296 41.398C53.6296 42.0029 53.4322 42.5887 53.0374 43.1554C52.649 43.7221 52.1173 44.1455 51.4424 44.4257C52.2065 44.6677 52.7954 45.0688 53.2093 45.6292C53.6296 46.1895 53.8397 46.874 53.8397 47.6827C53.8397 48.9307 53.4322 49.9208 52.6172 50.6531C51.8021 51.3853 50.7419 51.7515 49.4366 51.7515C48.1313 51.7515 47.0679 51.3981 46.2465 50.6913C45.4315 49.9845 45.024 49.0517 45.024 47.8928H46.8005C46.8005 48.625 47.0393 49.2109 47.5168 49.6502C47.9944 50.0896 48.6343 50.3092 49.4366 50.3092C50.2898 50.3092 50.9425 50.0864 51.3946 49.6407C51.8467 49.1949 52.0727 48.555 52.0727 47.7209C52.0727 46.9122 51.8244 46.2914 51.3277 45.8584C50.8311 45.4254 50.1147 45.2025 49.1787 45.1898H47.8511V43.7476Z"
              fill="#2B172E"/>
        <path fill-rule="evenodd" clip-rule="evenodd"
              d="M48.7143 20.2349C51.8003 20.2349 54.3573 22.7477 54.3573 25.8778C54.3573 29.0078 51.8003 31.5207 48.7143 31.5207C45.5843 31.5207 43.0273 29.0078 43.0273 25.8778C43.0273 22.7477 45.5843 20.2349 48.7143 20.2349ZM48.8025 26.0982C50.6982 26.0982 52.3734 26.6713 52.1971 27.6412C51.7121 29.2282 50.3896 30.11 48.8025 30.11C47.2154 30.11 45.8929 29.2282 45.3639 27.6412C45.2316 26.6713 46.9068 26.0982 48.8025 26.0982ZM48.7143 21.9101C49.6401 21.9101 50.3896 22.6596 50.3896 23.5853C50.3896 24.5552 49.6401 25.3047 48.7143 25.3047C47.7445 25.3047 46.995 24.5552 46.995 23.5853C46.995 22.6596 47.7445 21.9101 48.7143 21.9101Z"
              fill="#2B172E"/>
        <path fill-rule="evenodd" clip-rule="evenodd"
              d="M34.432 5.24609C37.562 5.24609 40.0749 7.75895 40.0749 10.889C40.0749 14.0191 37.562 16.5319 34.432 16.5319C31.3019 16.5319 28.7891 14.0191 28.7891 10.889C28.7891 7.75895 31.3019 5.24609 34.432 5.24609ZM34.5201 11.1094C36.4158 11.1094 38.1351 11.6825 37.9588 12.6524C37.4739 14.2395 36.1072 15.1212 34.5201 15.1212C32.9772 15.1212 31.6105 14.2395 31.1256 12.6524C30.9492 11.6825 32.6686 11.1094 34.5201 11.1094ZM34.432 6.87725C35.3578 6.87725 36.1513 7.67078 36.1513 8.59657C36.1513 9.52236 35.3578 10.3159 34.432 10.3159C33.5062 10.3159 32.7126 9.52236 32.7126 8.59657C32.7126 7.67078 33.5062 6.87725 34.432 6.87725Z"
              fill="#2B172E"/>
        <path fill-rule="evenodd" clip-rule="evenodd"
              d="M3.39399 32.3585H8.46379V35.8412H3.39399V32.3585ZM11.0648 32.3585H16.1346V35.8412H11.0648V32.3585ZM18.7357 32.3585H23.8055V35.8412H18.7357V32.3585ZM27.0678 49.2431H22.8797V43.7766H12.7841V49.2431H1.41016V29.493V29.4489H1.49833L7.14124 26.0102V29.3166L12.6078 26.0102V29.3166L18.0303 26.0102V29.4489H20.6754L21.4689 6.48047H24.9517L25.7452 29.4489H27.0678V49.2431Z"
              fill="#2B172E"/>
    </symbol>

    <symbol id="advantages-product2" viewBox="0 0 60 60">
        <path d="M58.5131 1.48755H1.48828V58.5123H58.5131V1.48755Z" stroke="#2B172E" stroke-width="1.99812"
              stroke-linecap="round" stroke-linejoin="round"/>
        <path d="M30 1.48755V58.5123" stroke="#2B172E" stroke-width="1.99812" stroke-linecap="round"
              stroke-linejoin="round"/>
        <path d="M58.5775 1.48755H1.48828V21.5452H58.5775V1.48755Z" fill="#2B172E"/>

    </symbol>

    <symbol id="advantages-product3" viewBox="0 0 60 60">
        <path d="M30.0011 -27.8572L-4.07031 7.28568" stroke="#2B172E" stroke-width="2.00124"/>
        <path d="M30.0011 -17.1428L-4.07031 18" stroke="#2B172E" stroke-width="2.00124"/>
        <path d="M30.0011 -6.42871L-4.07031 28.9284" stroke="#2B172E" stroke-width="2.00124"/>
        <path d="M30.0011 4.28564L-4.07031 39.6428" stroke="#2B172E" stroke-width="2.00124"/>
        <path d="M30.0011 15L-4.07031 50.3571" stroke="#2B172E" stroke-width="2.00124"/>
        <path d="M30.0011 25.7144L-4.07031 61.0715" stroke="#2B172E" stroke-width="2.00124"/>
        <path d="M30.0011 36.4285L-4.07031 71.7856" stroke="#2B172E" stroke-width="2.00124"/>
        <path d="M30.0011 47.1428L-4.07031 82.5" stroke="#2B172E" stroke-width="2.00124"/>
        <path d="M30 -27.8572L64.0714 7.28568" stroke="#2B172E" stroke-width="2.00124"/>
        <path d="M30 -17.1428L64.0714 18" stroke="#2B172E" stroke-width="2.00124"/>
        <path d="M30 -6.42871L64.0714 28.9284" stroke="#2B172E" stroke-width="2.00124"/>
        <path d="M30 4.28564L64.0714 39.6428" stroke="#2B172E" stroke-width="2.00124"/>
        <path d="M30 15L64.0714 50.3571" stroke="#2B172E" stroke-width="2.00124"/>
        <path d="M30 25.7144L64.0714 61.0715" stroke="#2B172E" stroke-width="2.00124"/>
        <path d="M30 36.4285L64.0714 71.7856" stroke="#2B172E" stroke-width="2.00124"/>
        <path d="M30 47.1428L64.0714 82.5" stroke="#2B172E" stroke-width="2.00124"/>
        <path fill-rule="evenodd" clip-rule="evenodd" d="M1.5 1.5H58.7143V58.7143H1.5V1.5Z" stroke="#2B172E"
              stroke-width="2.00124" stroke-linecap="round" stroke-linejoin="round"/>
        <path d="M30 1.5V58.7143" stroke="#2B172E" stroke-width="2.00124" stroke-linecap="round"
              stroke-linejoin="round"/>
    </symbol>

    <symbol id="advantages-product4" viewBox="0 0 60 60">
        <path d="M58.7143 1.5H1.5V58.7143H58.7143V1.5Z" stroke="#2B172E" stroke-width="2.00124" stroke-linecap="round"
              stroke-linejoin="round"/>
        <path fill-rule="evenodd" clip-rule="evenodd"
              d="M20.3594 25.5H9.4308V34.5H20.3594V39H0.859375V34.5V25.5V21H8.14509H9.4308H20.3594V25.5ZM36.8594 25.5H25.9308V34.5H36.8594V39H59.1451V21H36.8594V25.5Z"
              fill="#2B172E"/>
    </symbol>

    <symbol id="check" viewBox="0 0 18 18">
        <path d="M9 0C4.03759 0 0 4.03759 0 9C0 13.9624 4.03759 18 9 18C13.9624 18 18 13.9624 18 9C18 4.03759 13.9624 0 9 0ZM14.0301 6.63158L8.2782 12.3383C7.93985 12.6767 7.3985 12.6992 7.03759 12.3609L3.99248 9.58647C3.63158 9.24812 3.60902 8.68421 3.92481 8.32331C4.26316 7.96241 4.82707 7.93985 5.18797 8.2782L7.6015 10.4887L12.7444 5.34586C13.1053 4.98496 13.6692 4.98496 14.0301 5.34586C14.391 5.70677 14.391 6.27068 14.0301 6.63158Z"/>
    </symbol>

</svg>