<svg width="20" height="20" viewBox="0 0 20 20" fill="none" xmlns="http://www.w3.org/2000/svg">
    <path d="M9.96094 0C4.45551 0 0 4.45504 0 9.96094C0 15.4256 4.41504 20 9.96094 20C15.4472 20 20 15.4801 20 9.96094C20 4.40898 15.4196 0 9.96094 0ZM9.96094 18.8359C5.11465 18.8359 1.16406 14.8503 1.16406 9.96094C1.16406 5.11465 5.11465 1.16406 9.96094 1.16406C14.8503 1.16406 18.8359 5.11465 18.8359 9.96094C18.8359 14.8503 14.8503 18.8359 9.96094 18.8359Z" fill="#38294B"/>
    <path d="M10.8677 9.96096L12.7971 8.03154C13.0259 7.80271 13.0259 7.4317 12.7971 7.20287C12.5683 6.97404 12.1973 6.97404 11.9685 7.20287L9.62475 9.54662C9.39592 9.77545 9.39592 10.1464 9.62475 10.3753L11.9685 12.719C12.1973 12.9478 12.5683 12.9478 12.7971 12.719C13.0259 12.4902 13.0259 12.1192 12.7971 11.8904L10.8677 9.96096Z" fill="#38294B"/>
    <path d="M9.96094 2.34375C5.76531 2.34375 2.34375 5.7577 2.34375 9.96094C2.34375 14.1779 5.7759 17.6562 9.96094 17.6562C14.1599 17.6562 17.6562 14.1739 17.6562 9.96094C17.6562 5.77832 14.1804 2.34375 9.96094 2.34375ZM14.9448 14.1162L14.5966 13.7679C14.3678 13.5391 13.9968 13.5391 13.7679 13.7679C13.5391 13.9968 13.5391 14.3677 13.7679 14.5966L14.1161 14.9448C13.122 15.7802 11.8855 16.3307 10.5468 16.4564V15.8984C10.5468 15.5748 10.2845 15.3125 9.9609 15.3125C9.6373 15.3125 9.37496 15.5748 9.37496 15.8984V16.4571C8.04152 16.3349 6.82402 15.8003 5.84852 14.9801L6.23203 14.5966C6.46086 14.3678 6.46086 13.9968 6.23203 13.768C6.00324 13.5391 5.63223 13.5391 5.4034 13.768L5.02293 14.1484C4.19938 13.1551 3.66246 11.9108 3.54191 10.5469H4.10156C4.42516 10.5469 4.6875 10.2845 4.6875 9.96094C4.6875 9.63734 4.42516 9.375 4.10156 9.375H3.54254C3.66371 8.03711 4.19516 6.81594 5.01016 5.83879L5.40344 6.23207C5.63223 6.46086 6.00324 6.4609 6.23207 6.23207C6.4609 6.00324 6.4609 5.63227 6.23207 5.40344L5.83879 5.01016C6.81594 4.19516 8.03711 3.66371 9.375 3.54254V4.10156C9.375 4.42516 9.63734 4.6875 9.96094 4.6875C10.2845 4.6875 10.5469 4.42516 10.5469 4.10156V3.54191C11.9108 3.66246 13.1551 4.19937 14.1484 5.02297L13.768 5.4034C13.3977 5.77367 13.665 6.40367 14.1823 6.40367C14.3322 6.40367 14.4822 6.34648 14.5966 6.23207L14.9801 5.84856C15.8003 6.82406 16.3349 8.0416 16.4571 9.375H15.8984C15.5748 9.375 15.3125 9.63734 15.3125 9.96094C15.3125 10.2845 15.5748 10.5469 15.8984 10.5469H16.4564C16.3307 11.8855 15.7802 13.122 14.9448 14.1162Z" fill="#38294B"/>
</svg>
